<?xml version="1.0" encoding="UTF-8" standalone="no"?>
<!-- Created with Inkscape (http://www.inkscape.org/) -->
<svg id="svg2" version="1.1" inkscape:version="1.1.2 (0a00cf5339, 2022-02-04)" xml:space="preserve" width="166.93723" height="328.72614" viewBox="0 0 166.93723 328.72614" sodipodi:docname="auger_logo3.svg" inkscape:export-filename="/home/darko/auger/work/auger_logo/auger_logo3-x3000.png" inkscape:export-xdpi="892.70319" inkscape:export-ydpi="892.70319" xmlns:inkscape="http://www.inkscape.org/namespaces/inkscape" xmlns:sodipodi="http://sodipodi.sourceforge.net/DTD/sodipodi-0.dtd" xmlns="http://www.w3.org/2000/svg" xmlns:svg="http://www.w3.org/2000/svg" xmlns:rdf="http://www.w3.org/1999/02/22-rdf-syntax-ns#" xmlns:cc="http://creativecommons.org/ns#" xmlns:dc="http://purl.org/dc/elements/1.1/"><metadata id="metadata8"><rdf:RDF><cc:Work rdf:about=""><dc:format>image/svg+xml</dc:format><dc:type rdf:resource="http://purl.org/dc/dcmitype/StillImage"/></cc:Work></rdf:RDF></metadata><defs id="defs6"/><sodipodi:namedview pagecolor="#ffffff" bordercolor="#666666" borderopacity="1" objecttolerance="10" gridtolerance="10" guidetolerance="10" inkscape:pageopacity="0" inkscape:pageshadow="2" inkscape:window-width="3840" inkscape:window-height="2117" id="namedview4" showgrid="false" inkscape:zoom="5.6247429" inkscape:cx="83.470482" inkscape:cy="164.36307" inkscape:window-x="0" inkscape:window-y="19" inkscape:window-maximized="1" inkscape:current-layer="layer1" fit-margin-top="3" fit-margin-left="3" fit-margin-right="3" fit-margin-bottom="3" inkscape:pagecheckerboard="0"/><g id="g10" inkscape:groupmode="layer" inkscape:label="text" transform="matrix(1.25,0,0,-1.25,-0.374025,326.61614)" style="display:inline"><path inkscape:connector-curvature="0" id="path18" style="fill:#000000;fill-opacity:1;fill-rule:nonzero;stroke:none" d="m 3.40039,75.5488 7.84731,0.2879 c 10.5464,0.3961 11.3382,-5.2551 11.3382,-6.659 0,-5.0394 -5.0031,-6.839 -9.2148,-7.307 l -0.1078,0.5398 c 3.2754,0.504 5.6512,2.1957 5.6512,5.7954 0,4.6793 -3.9235,6.8031 -8.1348,6.7671 V 57.1914 c 0,-3.9598 0.0719,-4.6797 4.7871,-5.3637 V 51.2879 H 3.14844 v 0.5398 c 4.31953,0.5762 4.35547,1.6559 4.46328,5.3637 V 68.35 c 0,4.8953 0,6.443 -4.21133,6.659 v 0.5398"/><path inkscape:connector-curvature="0" id="path20" style="fill:#000000;fill-opacity:1;fill-rule:nonzero;stroke:none" d="m 32.266,57.1914 c 0.1082,-3.7078 0.1442,-4.7875 4.4637,-5.3637 V 51.2879 H 24.6352 v 0.5398 c 4.3195,0.5762 4.3554,1.6559 4.4632,5.3637 v 12.6703 c -0.1078,3.7074 -0.1437,4.7871 -4.4632,5.3633 v 0.5398 H 36.7297 V 75.225 C 32.4102,74.6488 32.3742,73.5691 32.266,69.8617 V 57.1914"/><path inkscape:connector-curvature="0" id="path22" style="fill:#000000;fill-opacity:1;fill-rule:nonzero;stroke:none" d="m 38.9953,51.8277 c 4.3195,0.5762 4.3559,1.6559 4.4637,5.3637 v 12.6703 c -0.1078,3.7074 -0.1442,4.7871 -4.4637,5.3633 v 0.5398 H 58.325 l -0.4316,-5.5433 h -0.5403 c -0.2519,4.6433 -3.5992,4.6797 -7.2351,4.6797 h -3.4914 v -10.259 h 3.7433 c 2.7,0 4.7516,0.216 5.1477,3.3117 h 0.5398 V 59.927 h -0.5398 c -0.468,3.1675 -2.4477,3.2035 -5.1477,3.2035 h -3.7433 v -5.9032 c 0,-2.1238 -0.5039,-5.0753 5.3992,-5.0753 4.5355,0 6.7672,1.7277 7.6672,6.2628 h 0.5398 C 60.1969,55.6793 59.7289,53.4477 59.009,51.2879 H 38.9953 v 0.5398"/><path inkscape:connector-curvature="0" id="path24" style="fill:#000000;fill-opacity:1;fill-rule:nonzero;stroke:none" d="m 65.3797,68.35 c 0,5.507 -0.1801,6.3352 -4.2113,6.6949 v 0.5039 l 8.7828,0.2879 c 9.0707,0.2883 9.7906,-4.1394 9.7906,-5.8672 0,-3.0234 -1.8719,-4.7511 -4.4633,-5.9031 l 0.1797,-0.2519 C 78.2301,58.9551 81.6855,52.7637 87.625,51.5398 L 87.5168,51 c -3.8152,0.1801 -6.623,0.0719 -8.7109,2.2316 -2.3754,2.4836 -4.2473,5.6516 -5.0032,7.1993 -1.4398,2.9875 -2.7355,2.1238 -5.2554,2.5554 v -5.7949 c 0,-3.9598 0.0718,-4.6797 5.0035,-5.3637 V 51.2879 H 60.9164 v 0.5398 c 4.3191,0.5762 4.3555,1.6559 4.4633,5.3637 z m 3.1676,-4.7516 c 3.4554,0.036 7.4871,1.62 7.4871,5.6153 0,4.2117 -3.7074,5.9035 -7.4871,5.8672 V 63.5984"/><path inkscape:connector-curvature="0" id="path26" style="fill:#000000;fill-opacity:1;fill-rule:nonzero;stroke:none" d="m 88.7777,68.35 c 0,5.507 -0.1797,6.3352 -4.2113,6.6949 v 0.5039 l 8.7828,0.2879 c 9.0708,0.2883 9.7908,-4.1394 9.7908,-5.8672 0,-3.0234 -1.872,-4.7511 -4.4634,-5.9031 l 0.18,-0.2519 C 101.628,58.9551 105.084,52.7637 111.023,51.5398 L 110.915,51 c -3.815,0.1801 -6.623,0.0719 -8.711,2.2316 -2.3755,2.4836 -4.2474,5.6516 -5.0032,7.1993 -1.4399,2.9875 -2.7356,2.1238 -5.2555,2.5554 v -5.7949 c 0,-3.9598 0.0723,-4.6797 5.0035,-5.3637 V 51.2879 H 84.3145 v 0.5398 c 4.3195,0.5762 4.3554,1.6559 4.4632,5.3637 z m 3.1676,-4.7516 c 3.4559,0.036 7.4871,1.62 7.4871,5.6153 0,4.2117 -3.7074,5.9035 -7.4871,5.8672 V 63.5984"/><path inkscape:connector-curvature="0" id="path28" style="fill:#000000;fill-opacity:1;fill-rule:nonzero;stroke:none" d="m 107.748,51.8277 c 4.32,0.5762 4.356,1.6559 4.464,5.3637 v 12.6703 c -0.108,3.7074 -0.144,4.7871 -4.464,5.3633 v 0.5398 h 19.33 l -0.432,-5.5433 h -0.54 c -0.252,4.6433 -3.599,4.6797 -7.235,4.6797 h -3.491 v -10.259 h 3.743 c 2.7,0 4.752,0.216 5.147,3.3117 h 0.541 V 59.927 h -0.541 c -0.468,3.1675 -2.447,3.2035 -5.147,3.2035 h -3.743 v -5.9032 c 0,-2.1238 -0.504,-5.0753 5.399,-5.0753 4.535,0 6.767,1.7277 7.667,6.2628 h 0.54 c -0.036,-2.7355 -0.504,-4.9671 -1.224,-7.1269 h -20.014 v 0.5398"/><path inkscape:connector-curvature="0" id="path30" style="fill:#000000;fill-opacity:1;fill-rule:nonzero;stroke:none" d="m 10.6543,29.0469 c -0.6117,-1.8 -2.19571,-5.5434 -2.19571,-7.2711 0,-2.1961 2.48401,-2.1961 4.10351,-2.4481 V 18.7879 H 2.69922 v 0.5398 c 3.2039,0.8641 3.52773,1.584 4.64375,4.3914 l 4.06723,10.6188 2.1601,5.8676 c 0.3238,0.9355 0.7918,1.7996 0.3957,2.4836 0.9719,0.3957 1.8719,1.0437 2.6278,1.9437 l 7.9191,-21.0933 c 0.9719,-2.6278 1.5836,-3.6715 4.4633,-4.2118 V 18.7879 H 18.3934 v 0.5398 c 1.2597,0.2879 2.7718,0.684 2.7718,2.3039 0,1.5118 -1.3679,4.8954 -2.3039,7.4153 z m 3.9957,11.0144 -3.3836,-9.359 h 7.127 l -3.7434,9.359"/><path inkscape:connector-curvature="0" id="path32" style="fill:#000000;fill-opacity:1;fill-rule:nonzero;stroke:none" d="M 53.2371,43.2648 V 42.725 C 49.9617,42.3648 49.7457,40.3492 49.602,35.5977 L 49.3859,27.7148 C 49.2777,23.0715 47.298,18.3559 39.307,18.3559 c -11.1586,0 -10.0066,8.0632 -10.0066,10.9425 v 8.0633 c -0.1082,3.7074 -0.1442,4.7871 -4.4637,5.3633 v 0.5398 H 37.2555 V 42.725 C 32.5398,42.041 32.468,41.3211 32.468,37.3617 v -7.3793 c 0,-0.684 -1.152,-9.9707 8.7109,-9.9707 7.775,0 7.0191,7.4153 7.0191,11.8067 v 3.7793 c 0,4.5714 -0.3601,6.6593 -5.3996,7.1273 v 0.5398 h 10.4387"/><path inkscape:connector-curvature="0" id="path34" style="fill:#000000;fill-opacity:1;fill-rule:nonzero;stroke:none" d="M 78.3602,21.5598 V 21.0195 C 74.5086,19.4 71.557,18.3559 67.4895,18.3559 c -7.4149,0 -13.7141,4.4996 -13.7141,12.3824 0,7.991 6.9832,12.9586 14.5058,12.9586 2.8438,0 5.7235,-0.5039 8.4231,-1.4039 l -0.1438,-6.2633 h -0.4679 c -0.9,4.1758 -3.7797,6.8031 -8.1352,6.8031 -6.2273,0 -10.0066,-4.7512 -10.0066,-10.7625 0,-7.1269 5.0754,-12.4906 12.2383,-12.4906 3.2757,0 3.2398,0.8641 3.2398,3.2039 v 2.1598 c 0,3.9953 -1.0441,4.4273 -4.8594,4.8953 v 0.5398 h 10.6547 v -0.5398 c -2.5199,-0.5039 -2.6277,-1.5121 -2.6277,-3.7438 v -4.5351 h 1.7637"/><path inkscape:connector-curvature="0" id="path36" style="fill:#000000;fill-opacity:1;fill-rule:nonzero;stroke:none" d="m 81.0195,19.3277 c 4.3196,0.5762 4.3555,1.6559 4.4637,5.3637 v 12.6703 c -0.1082,3.7074 -0.1441,4.7871 -4.4637,5.3633 v 0.5398 h 19.3295 l -0.4318,-5.5433 h -0.5399 c -0.2519,4.6433 -3.5996,4.6797 -7.2351,4.6797 h -3.4914 v -10.259 h 3.7433 c 2.6997,0 4.7516,0.216 5.1473,3.3117 h 0.5402 V 27.427 h -0.5402 c -0.468,3.1675 -2.4476,3.2035 -5.1473,3.2035 h -3.7433 v -5.9032 c 0,-2.1238 -0.5039,-5.0753 5.3992,-5.0753 4.5355,0 6.767,1.7277 7.667,6.2628 h 0.54 c -0.036,-2.7355 -0.504,-4.9671 -1.224,-7.1269 H 81.0195 v 0.5398"/><path inkscape:connector-curvature="0" id="path38" style="fill:#000000;fill-opacity:1;fill-rule:nonzero;stroke:none" d="m 109.204,35.85 c 0,5.507 -0.18,6.3352 -4.211,6.6949 v 0.5039 l 8.782,0.2879 c 9.071,0.2883 9.791,-4.1394 9.791,-5.8672 0,-3.0234 -1.872,-4.7511 -4.463,-5.9031 l 0.179,-0.2519 c 2.772,-4.8594 6.228,-11.0508 12.167,-12.2747 L 131.341,18.5 c -3.815,0.1801 -6.623,0.0719 -8.711,2.2316 -2.375,2.4836 -4.247,5.6516 -5.003,7.1993 -1.44,2.9875 -2.736,2.1238 -5.256,2.5554 v -5.7949 c 0,-3.9598 0.072,-4.6797 5.004,-5.3637 v -0.5398 h -12.634 v 0.5398 c 4.319,0.5762 4.355,1.6559 4.463,5.3637 z m 3.167,-4.7516 c 3.456,0.036 7.488,1.62 7.488,5.6153 0,4.2117 -3.708,5.9035 -7.488,5.8672 V 31.0984"/><path style="font-variant:normal;font-weight:normal;font-size:medium;font-family:Helvetica;-inkscape-font-specification:Helvetica;writing-mode:lr-tb;fill:#000000;fill-opacity:1;fill-rule:nonzero;stroke:none" d="m 20.372,6.648 c 0,3.76 -2.224,6.304 -5.648,6.304 -3.344,0 -5.616,-2.56 -5.616,-6.208 0,-3.648 2.272,-6.032 5.632,-6.032 3.424,0 5.632,2.512 5.632,5.936 z M 18.884,6.68 c 0,-2.816 -1.68,-4.656 -4.144,-4.656 -2.48,0 -4.144,1.84 -4.144,4.72 0,2.88 1.664,4.896 4.128,4.896 2.528,0 4.16,-2.016 4.16,-4.96 z" id="path4528" inkscape:connector-curvature="0"/><path style="font-variant:normal;font-weight:normal;font-size:medium;font-family:Helvetica;-inkscape-font-specification:Helvetica;writing-mode:lr-tb;fill:#000000;fill-opacity:1;fill-rule:nonzero;stroke:none" d="m 30.916,4.328 c 0,1.408 -0.64,2.256 -2.128,2.832 1.056,0.496 1.616,1.36 1.616,2.544 0,1.696 -1.248,2.96 -3.456,2.96 H 22.212 V 1 h 5.264 c 2.096,0 3.44,1.408 3.44,3.328 z m -2,5.168 C 28.916,8.312 28.228,7.64 26.58,7.64 H 23.7 v 3.712 h 2.88 c 1.648,0 2.336,-0.672 2.336,-1.856 z m 0.512,-5.184 c 0,-1.12 -0.688,-2 -2.096,-2 H 23.7 v 4.016 h 3.632 c 1.408,0 2.096,-0.88 2.096,-2.016 z" id="path4530" inkscape:connector-curvature="0"/><path style="font-variant:normal;font-weight:normal;font-size:medium;font-family:Helvetica;-inkscape-font-specification:Helvetica;writing-mode:lr-tb;fill:#000000;fill-opacity:1;fill-rule:nonzero;stroke:none" d="m 41.556001,4.2 c 0,1.44 -0.896,2.496 -2.48,2.928 l -2.928,0.784 c -1.408,0.368 -1.92,0.832 -1.92,1.728 0,1.184 1.04,2.064 2.608,2.064 1.856,0 2.912,-0.848 2.912,-2.368 h 1.408 c 0,2.288 -1.584,3.616 -4.272,3.616 -2.56,0 -4.144,-1.408 -4.144,-3.52 0,-1.424 0.752,-2.32 2.288,-2.72 l 2.896,-0.768 c 1.472,-0.384 2.144,-0.976 2.144,-1.888 0,-1.28 -0.96,-2.032 -2.976,-2.032 -2.208,0 -3.296,1.104 -3.296,2.768 h -1.408 c 0,-2.752 1.856,-4.08 4.608,-4.08 2.96,0 4.56,1.408 4.56,3.488 z" id="path4532" inkscape:connector-curvature="0"/><path style="font-variant:normal;font-weight:normal;font-size:medium;font-family:Helvetica;-inkscape-font-specification:Helvetica;writing-mode:lr-tb;fill:#000000;fill-opacity:1;fill-rule:nonzero;stroke:none" d="m 52.1,1 v 1.312 h -6.88 v 4 h 6.352 V 7.624 H 45.22 v 3.728 h 6.592 v 1.312 h -8.08 V 1 Z" id="path4534" inkscape:connector-curvature="0"/><path style="font-variant:normal;font-weight:normal;font-size:medium;font-family:Helvetica;-inkscape-font-specification:Helvetica;writing-mode:lr-tb;fill:#000000;fill-opacity:1;fill-rule:nonzero;stroke:none" d="m 63.828001,1 v 0.368 c -0.56,0.384 -0.688,0.8 -0.704,2.352 -0.032,1.92 -0.32,2.496 -1.584,3.04 1.312,0.64 1.84,1.456 1.84,2.784 0,2.016 -1.264,3.12 -3.552,3.12 h -5.376 V 1 h 1.488 v 5.024 h 3.84 c 1.312,0 1.936,-0.64 1.92,-2.08 l -0.016,-1.04 c -0.016,-0.72 0.128,-1.424 0.336,-1.904 z m -2,8.336 c 0,-1.376 -0.704,-2 -2.288,-2 h -3.6 v 4.016 h 3.6 c 1.664,0 2.288,-0.704 2.288,-2.016 z" id="path4536" inkscape:connector-curvature="0"/><path style="font-variant:normal;font-weight:normal;font-size:medium;font-family:Helvetica;-inkscape-font-specification:Helvetica;writing-mode:lr-tb;fill:#000000;fill-opacity:1;fill-rule:nonzero;stroke:none" d="m 74.54773,12.664 h -1.584 l -3.232,-9.872 -3.424,9.872 h -1.6 L 68.89973,1 h 1.6 z" id="path4538" inkscape:connector-curvature="0"/><path style="font-variant:normal;font-weight:normal;font-size:medium;font-family:Helvetica;-inkscape-font-specification:Helvetica;writing-mode:lr-tb;fill:#000000;fill-opacity:1;fill-rule:nonzero;stroke:none" d="m 84.163622,1 -4.096,11.664 h -1.92 L 73.987622,1 h 1.584 l 1.232,3.504 h 4.496 l 1.2,-3.504 z m -3.28,4.752 h -3.712 l 1.92,5.312 z" id="path4540" inkscape:connector-curvature="0"/><path style="font-variant:normal;font-weight:normal;font-size:medium;font-family:Helvetica;-inkscape-font-specification:Helvetica;writing-mode:lr-tb;fill:#000000;fill-opacity:1;fill-rule:nonzero;stroke:none" d="m 92.691506,11.352 v 1.312 h -9.152 v -1.312 h 3.84 V 1 h 1.488 v 10.352 z" id="path4542" inkscape:connector-curvature="0"/><path style="font-variant:normal;font-weight:normal;font-size:medium;font-family:Helvetica;-inkscape-font-specification:Helvetica;writing-mode:lr-tb;fill:#000000;fill-opacity:1;fill-rule:nonzero;stroke:none" d="m 104.5634,6.648 c 0,3.76 -2.224,6.304 -5.648001,6.304 -3.344,0 -5.616,-2.56 -5.616,-6.208 0,-3.648 2.272,-6.032 5.632,-6.032 3.424001,0 5.632001,2.512 5.632001,5.936 z m -1.488,0.032 c 0,-2.816 -1.68,-4.656 -4.144001,-4.656 -2.48,0 -4.144,1.84 -4.144,4.72 0,2.88 1.664,4.896 4.128,4.896 2.528001,0 4.160001,-2.016 4.160001,-4.96 z" id="path4544" inkscape:connector-curvature="0"/><path style="font-variant:normal;font-weight:normal;font-size:medium;font-family:Helvetica;-inkscape-font-specification:Helvetica;writing-mode:lr-tb;fill:#000000;fill-opacity:1;fill-rule:nonzero;stroke:none" d="m 116.0034,1 v 0.368 c -0.56,0.384 -0.688,0.8 -0.704,2.352 -0.032,1.92 -0.32,2.496 -1.584,3.04 1.312,0.64 1.84,1.456 1.84,2.784 0,2.016 -1.264,3.12 -3.552,3.12 h -5.376 V 1 h 1.488 v 5.024 h 3.84 c 1.312,0 1.936,-0.64 1.92,-2.08 l -0.016,-1.04 c -0.016,-0.72 0.128,-1.424 0.336,-1.904 z m -2,8.336 c 0,-1.376 -0.704,-2 -2.288,-2 h -3.6 v 4.016 h 3.6 c 1.664,0 2.288,-0.704 2.288,-2.016 z" id="path4546" inkscape:connector-curvature="0"/><path style="font-variant:normal;font-weight:normal;font-size:medium;font-family:Helvetica;-inkscape-font-specification:Helvetica;writing-mode:lr-tb;fill:#000000;fill-opacity:1;fill-rule:nonzero;stroke:none" d="m 126.9795,12.664 h -1.776 l -3.328,-5.68 -3.424,5.68 h -1.84 l 4.496,-7.088 V 1 h 1.488 v 4.576 z" id="path4548" inkscape:connector-curvature="0"/></g><g inkscape:groupmode="layer" id="layer1" inkscape:label="shower" style="display:inline"><path id="path14" style="display:inline;fill:#000000;fill-opacity:1;fill-rule:nonzero;stroke:none;stroke-width:1.25" d="M 5.53125,3.7089844 5.8886719,4.2539062 7.0996094,5.5292969 5.5800781,3.7089844 Z m 1.4199219,0 22.5175781,25.3749996 73.41211,77.304686 60.37695,59.64453 -0.15039,0.15235 c 0.0397,0.016 0.13318,0.0548 0.17188,0.0703 L 163.30273,3.8007812 Z M 3.8496094,4.4199219 3.8007812,149.38086 c 10.6425088,-0.9122 23.6360898,0.99575 35.6093748,3.47656 L 27.939453,59.658203 Z m 4.4941406,3.3261719 3.603516,4.5117182 6.896484,7.337891 -5.478516,-6.5625 z m -0.2089844,2.8183592 5.7968754,11.607422 2.71289,3.673828 z m 1.2441406,0.953125 7.8320318,14.064453 -0.988282,-3.023437 z m -0.75,1.435547 2.3378908,5.205078 0.806641,1.09375 z m 2.9785158,0.0059 2.9375,4.470704 -0.310547,-0.947266 z m 3.332031,0.691407 0.863281,1.041015 0.916016,0.964844 z m -1.488281,3.253906 1.951172,3.146484 -0.115235,-0.353515 z m 1.958984,1.154297 0.447266,1.371094 8.773437,13.355468 -0.347656,-2.824218 z m 1.378906,0.263672 5.839844,7.310546 2.357422,2.697266 -0.296875,-1.603516 z M 12.173828,20.84375 24.998047,49.390625 21.529297,38.787109 13.396484,22.5 Z m 4.425781,0.853516 0.199219,0.607422 8.164063,13.171874 -0.158203,-1.289062 z m 5.158203,0.171875 2.615235,3.152343 -0.0918,-0.496093 z m -4.138671,2.941406 1.189453,3.640625 0.746094,1.339844 5.65039,7.652343 -0.06055,-0.490234 z m 7.453125,0.548828 0.11914,0.648437 2.408203,2.902344 15.8125,16.824219 -14.404297,-16.230469 z m -9.517578,0.0625 4.65039,9.314453 -1.769531,-5.410156 z m 6.498046,0.5 2.078125,2.787109 -0.0293,-0.228515 -1.970703,-2.46875 z m 3.427735,1.646484 0.3125,1.685547 4.527343,5.181641 -1.390624,-2.761719 -3.265626,-3.910156 z m -0.632813,1.847657 0.03711,0.30664 0.40039,0.53711 0.04883,-0.05078 -0.04492,-0.240234 z m 0.191406,1.55664 0.369141,2.992188 0.867188,1.322265 -0.654297,-3.533203 z m -5.214843,0.585938 2.291015,7.003906 4.283204,8.576172 -0.597657,-4.847656 z m 6.460937,0.04102 8.046875,10.792969 -1.505859,-2.986328 -5.085938,-6.369141 z m 0.181641,1.289063 0.695312,3.748047 16.558594,25.205078 -2.609375,-5.998047 -5.152344,-10.222656 z m 4.224609,0.896484 1.279297,2.539063 0.07227,0.08203 4.783203,4.726562 z m -8.75,0.289063 3.65625,6.566406 -0.238281,-1.935547 z m 3.638672,1.294922 0.169922,1.376953 1.134766,1.832031 -0.316407,-1.705078 z m -7.05664,1.134765 9.042968,20.736328 -0.730468,-2.236328 z m 15.52539,0.181641 7.832031,9.441406 14.566407,14.388672 z m -8.117187,1.537109 0.0293,0.244141 0.759765,1.029297 z m 1.523437,0 0.337891,1.81836 3.503906,5.654296 9.681641,13.113282 z m 5.648438,0.347656 0.246093,0.488282 1.009766,1.265625 -0.271484,-0.626953 z m -6.986328,1.160157 0.291015,2.363281 1.691406,3.037109 -0.671875,-3.625 z m 9.328124,1.519531 0.410157,0.947266 10.271484,12.861328 -0.421875,-2.064453 z m -0.724609,0.529297 1.767578,3.505859 0.07227,0.09766 -1.242188,-2.855468 z m -11.279297,0.835937 3.847656,11.761719 -0.662109,-5.384765 z m 4.835938,0.04102 0.77539,4.1875 L 43.794922,73.314462 42.677734,65.240243 30.783203,46.05079 Z M 37.65625,42.83204 50.886719,57.974618 41.017578,46.152353 Z m 4.09375,0.08984 16.609375,18.716797 10.074219,10.71875 20.546875,20.298828 z m -15.138672,0.822266 0.623047,5.068359 2.460937,4.927734 -1.238281,-6.68164 z m 10.203125,0.65625 1.380859,3.175781 8.820313,11.830078 -0.611328,-2.998047 z m -7.404297,4.36914 1.296875,6.996094 4.197266,8.40625 0.03711,-0.0059 0.02344,0.125 10.486328,21 -1.419922,-10.267578 z m 9.876953,1.316407 2.388672,5.490234 6.63086,13.15625 0.855468,1.158203 -1.849609,-9.041016 z m -11.824218,0.582031 0.71289,5.796875 3.44336,7.664062 -1.511719,-8.166015 z M 45.923828,51 l 6.78125,8.173828 9.273438,11.107422 -2.123047,-5.519531 z m -10.564453,1.248047 7.107422,11.466797 -0.3125,-2.263672 z m 11.177734,1.697265 0.447266,2.185547 5.519531,6.91211 -0.27539,-2.583985 z m 0.722657,3.535157 0.634765,3.103515 5.072266,6.802735 -0.339844,-3.185547 z m -16.140625,0.507812 1.583984,8.550781 3.439453,7.65625 -1.77539,-9.701171 z m -1.857422,2.416016 0.943359,2.886719 2.191406,5.023437 -0.294922,-1.589844 z m 23.68164,0.873047 0.285157,2.673828 12.1875,15.261719 -2.517578,-6.542969 z m -24.126953,0.394531 11.240235,91.316405 c 3.821856,0.80077 7.459866,1.64496 10.947265,2.48242 L 39.980469,95.193359 35.441406,81.3125 48.970703,154.32422 48.355469,154.4375 33.972656,76.824219 29.615234,63.501953 Z m 19.373047,0.355469 1.851563,9.054687 3.876953,5.251953 -0.822266,-7.726562 z m -5.259765,0.476562 0.347656,2.519532 5.152344,8.310546 h 0.002 v 0.0039 l 0.970703,1.564453 -3.847656,-8.84375 z m 10.421874,2.603516 0.347657,3.261719 15.58789,20.910156 -3.126953,-8.132813 z m 7.582032,0.720703 2.285156,5.9375 5.035156,6.033203 -0.123047,-1.166016 -4.05664,-7.615234 -0.63086,-0.710937 z m -25.566406,0.667969 1.84375,10.078125 10.164062,22.625 -1.65625,-11.97461 z m 8.121093,0.05273 1.144531,8.271484 3.748047,6.730469 -0.560547,-8.015625 z m 3.71875,1.748047 3.070313,7.056641 -0.455078,-2.226563 -1.859375,-3.689453 -0.707032,-1.076172 z m -14.023437,0.839844 0.318359,1.714843 3.494141,8.011719 -0.382813,-2.09375 z m -0.929688,0.417969 0.857422,2.621093 -0.210937,-1.138672 z m 21.574219,0.03516 0.822266,7.736328 15.832031,21.443359 -0.847656,-7.980469 z m 12.013672,1.421875 2.113281,3.964843 -0.191406,-1.798828 z m -31.835938,2.560547 0.572266,3.089843 4.566406,13.957032 -1.658203,-9.066407 z m 34.472657,0.410156 0.261718,2.464844 2.677735,5.02539 37.177731,42.546874 0.30078,-4.49414 z m -17.513672,0.02539 3.429687,6.802735 -0.201172,-1.888672 z m 13.126953,0.02734 2.613281,6.792969 2.158203,2.701172 -0.474609,-4.470703 -1.742188,-2.09961 z m -15.566406,0.636719 0.572265,8.164063 4.283203,7.693359 -2.447265,-11.970703 z m 2.371093,0.583984 0.583985,2.859375 0.205078,0.470704 2.984375,4.816406 -0.08789,-0.832032 z m -6.027343,1.275391 1.455078,10.505859 2.83789,5.683594 -0.677734,-9.701172 z m 28.001953,1.460938 36.083986,40.656256 0.14062,-2.11524 z m -3.955078,0.113281 0.05859,0.55664 0.240235,0.28711 0.386718,0.443359 z m -14.134766,0.449219 0.01563,0.148437 16.167969,24.609379 -0.351563,-3.314457 z m -17.099609,0.59375 0.40625,2.21875 9.990234,22.912116 -0.398437,-2.875 z m 31.427734,0.779296 0.478516,4.509766 8.128906,10.177734 -6.429688,-12.064453 z m -14.167969,0.132813 0.248047,2.328125 4.992188,9.904297 11.599609,18.710945 -0.673828,-6.33399 z m -2.857422,1.011719 2.304688,11.265625 1.523437,2.736328 -0.732421,-6.888672 z m 1.328125,1.484375 1.546875,3.55664 -0.136718,-1.28125 z m 14.03711,0.205078 1.839843,4.78125 -0.302734,-2.857422 z m -28.869141,1.296875 2.00586,10.966797 11.113281,33.976563 -0.119141,-1.70507 -0.310547,0.043 -2.873047,-20.77343 z m 16.796875,0.08789 0.05078,0.476563 1.015625,1.638672 z m -6.177734,0.158204 0.691406,9.875 7.175781,14.371096 -3.269531,-15.99219 z m 30.791015,0.349609 29.162106,31.027347 0.11133,-1.66797 -6.77539,-7.13476 z m -6.730468,0.277344 6.572265,12.335937 28.193359,35.302736 0.35352,-5.30664 z m -3.548828,0.662109 0.447265,4.205078 0.513672,1.337891 18.1875,24.392585 -9.539063,-17.900398 z m -14.13086,0.458984 0.208984,1.970704 13.570313,31.193366 4.070313,7.31054 -0.882813,-8.3164 -12.908203,-25.609382 z m -8.988281,2.917969 1.695312,12.257821 1.740235,3.87109 -0.751953,-10.753911 z m 9.417969,1.125 0.677734,6.369141 9.556641,17.16016 z m 14.402343,2.109375 0.802735,7.556641 4.398437,5.957035 z m 1.091797,1.09375 5.509766,14.318366 13.009766,17.62304 -2.978516,-11.09765 z m -16.699218,1.070313 2.152343,10.523443 -0.875,-8.230475 z m -4.800782,1.435547 0.765625,10.951176 8.367188,18.62305 -1.488281,-13.98438 -0.09766,-0.47656 z m 6.853516,2.25 1.361328,12.802736 17.203125,34.44922 -1.486328,-13.99805 -5.138672,-11.8125 z m 6.519531,0.578124 8.982422,17.820312 -0.427734,-4.01757 z m -21.955078,0.966797 10.248047,56.033205 c 0.658638,0.15901 1.284615,0.31389 1.925781,0.47071 l -1.716797,-24.53516 z m 40.015625,0.679695 9.894531,18.5664 16.162109,21.67969 0.46875,-7.03125 z m 5.619141,0.0371 21.410159,25.64648 0.0703,-1.06055 z m -15.710938,0.67382 0.367188,3.46094 8.236328,12.53711 -3.492188,-9.07226 z m -22.753906,2.44336 0.410156,2.96094 1.328125,3.04883 -0.177734,-2.53516 z m 23.265625,2.375 0.68164,6.41993 14.708985,23.73046 -6.242188,-16.2246 z m -20.960938,2.75586 0.181641,2.58985 3.078125,7.06054 -0.572266,0.25 -2.376953,-5.44922 1.289063,18.42188 8.675781,26.52344 c 0.487918,0.12083 1.002832,0.24833 1.470703,0.36328 L 59.349609,127.3789 Z m -1.578125,0.11914 1.939453,14.01758 -0.796874,-11.39844 z m 28.541016,1.12891 3.708984,9.64062 11.673829,17.77149 -2.773438,-10.33203 z m -19.228516,3.26953 4.195313,20.50977 12.107422,26.94922 c 0.640736,0.0362 1.414208,0.0398 2.113281,0.0625 l -1.435547,-13.52149 z m 14.058594,0.57617 0.464844,4.3711 21.292969,42.24414 c 1.641575,-0.0927 3.259732,-0.21368 4.894531,-0.33008 l -1.558594,-5.80469 -7.564453,-12.20312 4.986328,12.95898 -0.583984,0.22461 -6.169922,-16.03516 z m 37.158207,0.97266 -0.11133,1.67187 42.97265,45.72071 c 4.05375,1.48672 7.17519,2.82768 9.39063,3.74609 l -45.70508,-45.1543 8.11914,8.55079 -0.45312,0.42968 z m -21.791019,0.86719 2.984375,11.11914 9.748044,13.20312 -0.50195,0.3711 -8.802735,-11.92188 2.851563,10.62109 12.046872,18.33594 0.52149,-7.83398 -16.089847,-30.19531 z m 21.623049,1.65625 -0.14258,2.15039 35.74219,40.27539 c 2.13829,0.61012 4.1916,1.27251 6.10742,1.94922 z m -50.722659,0.64258 1.001953,9.4121 1.695313,3.77344 z m 14.384766,1.99218 0.863281,8.13086 18.072266,32.45117 c 0.49883,-0.0247 0.983023,-0.0411 1.484375,-0.0684 z m 36.136723,0.39258 -0.30079,4.50391 29.02344,33.21484 c 2.03726,0.3834 4.0338,0.84898 5.97071,1.375 z m -26.85352,2.01758 6.392578,16.61328 8.203125,13.23438 -3.462891,-12.89844 z m 10.662109,0.31445 13.695311,25.70117 0.44727,-6.72851 z m -21.373047,2.57813 1.802735,4.14453 -0.119141,-1.1211 z m 37.205078,0.47656 -0.0723,1.08789 22.98046,27.52539 -0.29882,0.24805 2.34179,2.82226 c 1.05046,0.12569 2.09557,0.27968 3.13477,0.45899 z m -0.16016,2.39453 -0.35546,5.33203 18.83789,23.58985 c 1.90523,-0.0316 3.82707,0.0754 5.74023,0.27343 z m -48.787105,1.24609 3.115234,29.2754 c 1.563818,0.3823 2.891595,0.67857 4.189453,0.9707 l -5.25,-25.67188 z m 14.201172,0.29883 0.173828,1.63672 12.808594,29.44922 c 1.370629,-0.0436 2.808076,-0.12475 4.222656,-0.19141 z m 0.394531,3.70899 1.453125,13.68945 6.869141,13.75391 c 1.184776,-0.0139 2.341359,-0.0205 3.589844,-0.0566 z m -22.091797,0.78515 1.556641,22.25586 c 2.213589,0.54329 4.269415,1.04249 6.222656,1.52735 z m 55.865239,0.2168 -0.47071,7.07813 12.19141,16.35156 c 0.2685,-0.0479 0.65196,-0.0948 0.90039,-0.14258 1.80164,-0.34648 3.64812,-0.51647 5.50977,-0.58203 z m -45.142582,2.17383 4.748046,23.21484 c 0.557813,0.12244 1.268487,0.29902 1.765625,0.39844 1.142411,0.22848 2.615035,0.3946 4.322266,0.50781 z m 31.455078,4.42187 3.509765,13.07617 3.638669,5.86915 c 1.7298,-0.13664 3.35899,-0.29333 5.00391,-0.44922 l -0.21875,-0.33203 -0.51953,-0.0352 0.0449,-0.68359 z m 13.152344,1.44141 -0.4668,7.00195 5.04492,9.4668 c 2.68138,-0.31261 5.03198,-0.63537 6.98047,-0.96484 z m -31.595704,6.42383 1.267578,11.94336 c 1.492868,0.0393 3.029153,0.0624 4.71875,0.0488 z m 31.050784,1.75781 -0.50977,7.6543 0.75781,1.15429 c 1.47479,-0.14323 2.85076,-0.2892 4.20899,-0.44336 z m -8.535159,5.54297 1.050781,3.91992 c 0.439478,-0.0321 0.883688,-0.0582 1.320318,-0.0918 z"/></g><g inkscape:groupmode="layer" id="layer4" inkscape:label="frame" style="display:inline"><path inkscape:connector-curvature="0" id="path262" style="display:inline;fill:none;stroke:#000000;stroke-width:1;stroke-linecap:butt;stroke-linejoin:miter;stroke-miterlimit:4;stroke-dasharray:none;stroke-opacity:1" d="m 3.3293,92.4465 h 127.566 v 165.858 H 3.3293 Z" transform="matrix(1.25,0,0,-1.25,-0.374025,326.61614)" label="frame"/></g><g inkscape:groupmode="layer" id="layer2" inkscape:label="sd" style="display:inline"><path transform="matrix(1.25,0,0,-1.25,-0.374025,326.61614)" style="display:inline;fill:#000000;fill-opacity:1;fill-rule:evenodd;stroke:none;stroke-width:0.008;stroke-linecap:butt;stroke-linejoin:miter;stroke-miterlimit:4;stroke-dasharray:none;stroke-opacity:1" d="m 7.97442,133.9664 c 3.224994,-1.07564 7.67474,-0.99621 10.472348,-0.509 3.415617,0.59483 5.047243,1.83235 3.914852,2.9858 4.200275,-1.46259 1.966228,-3.39891 -2.48973,-4.06343 -3.754614,-0.55993 -9.713949,-0.32098 -11.89747,1.58663 z" id="path4215" inkscape:connector-curvature="0" sodipodi:nodetypes="cscsc"/><path sodipodi:nodetypes="cscsc" inkscape:connector-curvature="0" id="path4247" d="m 28.4964,163.21454 c 4.031243,1.34455 9.593425,1.24526 13.090435,0.63625 4.269521,-0.74354 6.309054,-2.29044 4.893565,-3.73225 5.250344,1.82824 2.457785,4.24864 -3.112163,5.07929 -4.693267,0.69991 -12.142436,0.40122 -14.871837,-1.98329 z" style="display:inline;fill:#000000;fill-opacity:1;fill-rule:evenodd;stroke:none;stroke-width:0.008;stroke-linecap:butt;stroke-linejoin:miter;stroke-miterlimit:4;stroke-dasharray:none;stroke-opacity:1"/><path style="display:inline;fill:#000000;fill-opacity:1;fill-rule:evenodd;stroke:none;stroke-width:0.008;stroke-linecap:butt;stroke-linejoin:miter;stroke-miterlimit:4;stroke-dasharray:none;stroke-opacity:1" d="m 16.6797,171.35554 c 4.031243,1.34455 9.593425,1.24526 13.090435,0.63625 4.269521,-0.74354 6.309054,-2.29044 4.893565,-3.73225 5.250344,1.82824 2.457785,4.24864 -3.112163,5.07929 -4.693267,0.69991 -12.142436,0.40122 -14.871837,-1.98329 z" id="path4249" inkscape:connector-curvature="0" sodipodi:nodetypes="cscsc"/><path sodipodi:nodetypes="cscsc" inkscape:connector-curvature="0" id="path4251" d="m 9.3401946,180.72104 c 4.0312484,1.34455 9.5934304,1.24526 13.0904404,0.63625 4.269521,-0.74354 6.309054,-2.29044 4.893565,-3.73225 5.250344,1.82824 2.457785,4.24864 -3.112163,5.07929 -4.693267,0.69991 -12.142436,0.40122 -14.8718424,-1.98329 z" style="display:inline;fill:#000000;fill-opacity:1;fill-rule:evenodd;stroke:none;stroke-width:0.008;stroke-linecap:butt;stroke-linejoin:miter;stroke-miterlimit:4;stroke-dasharray:none;stroke-opacity:1"/><path style="display:inline;fill:#000000;fill-opacity:1;fill-rule:evenodd;stroke:none;stroke-width:0.008;stroke-linecap:butt;stroke-linejoin:miter;stroke-miterlimit:4;stroke-dasharray:none;stroke-opacity:1" d="m 44.8044,169.67984 c 4.031243,1.34455 9.593425,1.24526 13.090435,0.63625 4.269521,-0.74354 6.309054,-2.29044 4.893565,-3.73225 5.250344,1.82824 2.457785,4.24864 -3.112163,5.07929 -4.693267,0.69991 -12.142436,0.40122 -14.871837,-1.98329 z" id="path4253" inkscape:connector-curvature="0" sodipodi:nodetypes="cscsc"/><path sodipodi:nodetypes="cscsc" inkscape:connector-curvature="0" id="path4255" d="m 35.0159,178.42494 c 4.031243,1.34455 9.593425,1.24526 13.090435,0.63625 4.269521,-0.74354 6.309054,-2.29044 4.893565,-3.73225 5.250344,1.82824 2.457785,4.24864 -3.112163,5.07929 -4.693267,0.69991 -12.142436,0.40122 -14.871837,-1.98329 z" style="display:inline;fill:#000000;fill-opacity:1;fill-rule:evenodd;stroke:none;stroke-width:0.008;stroke-linecap:butt;stroke-linejoin:miter;stroke-miterlimit:4;stroke-dasharray:none;stroke-opacity:1"/><path style="display:inline;fill:#000000;fill-opacity:1;fill-rule:evenodd;stroke:none;stroke-width:0.008;stroke-linecap:butt;stroke-linejoin:miter;stroke-miterlimit:4;stroke-dasharray:none;stroke-opacity:1" d="m 23.9183,187.80674 c 4.031243,1.34455 9.593425,1.24526 13.090435,0.63625 4.269521,-0.74354 6.309054,-2.29044 4.893565,-3.73225 5.250344,1.82824 2.457785,4.24864 -3.112163,5.07929 -4.693267,0.69991 -12.142436,0.40122 -14.871837,-1.98329 z" id="path4257" inkscape:connector-curvature="0" sodipodi:nodetypes="cscsc"/><path sodipodi:nodetypes="cscsc" inkscape:connector-curvature="0" id="path4259" d="m 10.158009,196.55184 c 4.031234,1.34455 9.593416,1.24526 13.090426,0.63625 4.269521,-0.74354 6.309054,-2.29044 4.893565,-3.73225 5.250344,1.82824 2.457785,4.24864 -3.112163,5.07929 -4.693267,0.69991 -12.142436,0.40122 -14.871828,-1.98329 z" style="display:inline;fill:#000000;fill-opacity:1;fill-rule:evenodd;stroke:none;stroke-width:0.008;stroke-linecap:butt;stroke-linejoin:miter;stroke-miterlimit:4;stroke-dasharray:none;stroke-opacity:1"/><path style="display:inline;fill:#000000;fill-opacity:1;fill-rule:evenodd;stroke:none;stroke-width:0.008;stroke-linecap:butt;stroke-linejoin:miter;stroke-miterlimit:4;stroke-dasharray:none;stroke-opacity:1" d="m 21.8337,204.46724 c 4.031243,1.34455 9.593425,1.24526 13.090435,0.63625 4.269521,-0.74354 6.309054,-2.29044 4.893565,-3.73225 5.250344,1.82824 2.457785,4.24864 -3.112163,5.07929 -4.693267,0.69991 -12.142436,0.40122 -14.871837,-1.98329 z" id="path4261" inkscape:connector-curvature="0" sodipodi:nodetypes="cscsc"/><path sodipodi:nodetypes="cscsc" inkscape:connector-curvature="0" id="path4263" d="m 38.0734,195.72214 c 4.031243,1.34455 9.593425,1.24526 13.090435,0.63625 4.269521,-0.74354 6.309054,-2.29044 4.893565,-3.73225 5.250344,1.82824 2.457785,4.24864 -3.112163,5.07929 -4.693267,0.69991 -12.142436,0.40122 -14.871837,-1.98329 z" style="display:inline;fill:#000000;fill-opacity:1;fill-rule:evenodd;stroke:none;stroke-width:0.008;stroke-linecap:butt;stroke-linejoin:miter;stroke-miterlimit:4;stroke-dasharray:none;stroke-opacity:1"/><path style="display:inline;fill:#000000;fill-opacity:1;fill-rule:evenodd;stroke:none;stroke-width:0.008;stroke-linecap:butt;stroke-linejoin:miter;stroke-miterlimit:4;stroke-dasharray:none;stroke-opacity:1" d="m 49.1851,186.34034 c 4.031243,1.34455 9.593425,1.24526 13.090435,0.63625 4.269521,-0.74354 6.309054,-2.29044 4.893565,-3.73225 5.250344,1.82824 2.457785,4.24864 -3.112163,5.07929 -4.693267,0.69991 -12.142436,0.40122 -14.871837,-1.98329 z" id="path4265" inkscape:connector-curvature="0" sodipodi:nodetypes="cscsc"/><path sodipodi:nodetypes="cscsc" inkscape:connector-curvature="0" id="path4267" d="m 61.8337,177.96184 c 4.031243,1.34455 9.593425,1.24526 13.090435,0.63625 4.269521,-0.74354 6.309054,-2.29044 4.893565,-3.73225 5.250344,1.82824 2.457785,4.24864 -3.112163,5.07929 -4.693267,0.69991 -12.142436,0.40122 -14.871837,-1.98329 z" style="display:inline;fill:#000000;fill-opacity:1;fill-rule:evenodd;stroke:none;stroke-width:0.008;stroke-linecap:butt;stroke-linejoin:miter;stroke-miterlimit:4;stroke-dasharray:none;stroke-opacity:1"/><path style="display:inline;fill:#000000;fill-opacity:1;fill-rule:evenodd;stroke:none;stroke-width:0.008;stroke-linecap:butt;stroke-linejoin:miter;stroke-miterlimit:4;stroke-dasharray:none;stroke-opacity:1" d="m 73.0864,169.46834 c 4.031243,1.34455 9.593425,1.24526 13.090435,0.63625 4.269521,-0.74354 6.309054,-2.29044 4.893565,-3.73225 5.250344,1.82824 2.457785,4.24864 -3.112163,5.07929 -4.693267,0.69991 -12.142436,0.40122 -14.871837,-1.98329 z" id="path4269" inkscape:connector-curvature="0" sodipodi:nodetypes="cscsc"/><path sodipodi:nodetypes="cscsc" inkscape:connector-curvature="0" id="path4271" d="m 104.7621,167.80674 c 4.03124,1.34455 9.59342,1.24526 13.09043,0.63625 4.26953,-0.74354 6.30906,-2.29044 4.89357,-3.73225 5.25034,1.82824 2.45778,4.24864 -3.11216,5.07929 -4.69327,0.69991 -12.14244,0.40122 -14.87184,-1.98329 z" style="display:inline;fill:#000000;fill-opacity:1;fill-rule:evenodd;stroke:none;stroke-width:0.008;stroke-linecap:butt;stroke-linejoin:miter;stroke-miterlimit:4;stroke-dasharray:none;stroke-opacity:1"/><path style="display:inline;fill:#000000;fill-opacity:1;fill-rule:evenodd;stroke:none;stroke-width:0.008;stroke-linecap:butt;stroke-linejoin:miter;stroke-miterlimit:4;stroke-dasharray:none;stroke-opacity:1" d="m 132.9313,170.04644 c 4.03124,1.34455 9.59342,1.24526 13.09043,0.63625 4.26953,-0.74354 6.30906,-2.29044 4.89357,-3.73225 5.25034,1.82824 2.45778,4.24864 -3.11216,5.07929 -4.69327,0.69991 -12.14244,0.40122 -14.87184,-1.98329 z" id="path4273" inkscape:connector-curvature="0" sodipodi:nodetypes="cscsc"/><path sodipodi:nodetypes="cscsc" inkscape:connector-curvature="0" id="path4275" d="m 119.03,177.80674 c 4.03124,1.34455 9.59342,1.24526 13.09043,0.63625 4.26953,-0.74354 6.30906,-2.29044 4.89357,-3.73225 5.25034,1.82824 2.45778,4.24864 -3.11216,5.07929 -4.69327,0.69991 -12.14244,0.40122 -14.87184,-1.98329 z" style="display:inline;fill:#000000;fill-opacity:1;fill-rule:evenodd;stroke:none;stroke-width:0.008;stroke-linecap:butt;stroke-linejoin:miter;stroke-miterlimit:4;stroke-dasharray:none;stroke-opacity:1"/><path style="display:inline;fill:#000000;fill-opacity:1;fill-rule:evenodd;stroke:none;stroke-width:0.008;stroke-linecap:butt;stroke-linejoin:miter;stroke-miterlimit:4;stroke-dasharray:none;stroke-opacity:1" d="m 89.3261,176.14294 c 4.03124,1.34455 9.59342,1.24526 13.09043,0.63625 4.26953,-0.74354 6.30906,-2.29044 4.89357,-3.73225 5.25034,1.82824 2.45778,4.24864 -3.11216,5.07929 -4.69327,0.69991 -12.14244,0.40122 -14.87184,-1.98329 z" id="path4277" inkscape:connector-curvature="0" sodipodi:nodetypes="cscsc"/><path sodipodi:nodetypes="cscsc" inkscape:connector-curvature="0" id="path4279" d="m 78.607,184.93254 c 4.03124,1.34455 9.59342,1.24526 13.09043,0.63625 4.26953,-0.74354 6.30906,-2.29044 4.89357,-3.73225 5.25034,1.82824 2.45778,4.24864 -3.11216,5.07929 -4.69327,0.69991 -12.14244,0.40122 -14.87184,-1.98329 z" style="display:inline;fill:#000000;fill-opacity:1;fill-rule:evenodd;stroke:none;stroke-width:0.008;stroke-linecap:butt;stroke-linejoin:miter;stroke-miterlimit:4;stroke-dasharray:none;stroke-opacity:1"/><path style="display:inline;fill:#000000;fill-opacity:1;fill-rule:evenodd;stroke:none;stroke-width:0.008;stroke-linecap:butt;stroke-linejoin:miter;stroke-miterlimit:4;stroke-dasharray:none;stroke-opacity:1" d="m 107.6645,186.14294 c 4.03124,1.34455 9.59342,1.24526 13.09043,0.63625 4.26953,-0.74354 6.30906,-2.29044 4.89357,-3.73225 5.25034,1.82824 2.45778,4.24864 -3.11216,5.07929 -4.69327,0.69991 -12.14244,0.40122 -14.87184,-1.98329 z" id="path4281" inkscape:connector-curvature="0" sodipodi:nodetypes="cscsc"/><path sodipodi:nodetypes="cscsc" inkscape:connector-curvature="0" id="path4283" d="m 135.9866,186.55184 c 4.03124,1.34455 9.59342,1.24526 13.09043,0.63625 4.26953,-0.74354 6.30906,-2.29044 4.89357,-3.73225 5.25034,1.82824 2.45778,4.24864 -3.11216,5.07929 -4.69327,0.69991 -12.14244,0.40122 -14.87184,-1.98329 z" style="display:inline;fill:#000000;fill-opacity:1;fill-rule:evenodd;stroke:none;stroke-width:0.008;stroke-linecap:butt;stroke-linejoin:miter;stroke-miterlimit:4;stroke-dasharray:none;stroke-opacity:1"/><path style="display:inline;fill:#000000;fill-opacity:1;fill-rule:evenodd;stroke:none;stroke-width:0.008;stroke-linecap:butt;stroke-linejoin:miter;stroke-miterlimit:4;stroke-dasharray:none;stroke-opacity:1" d="m 121.8315,194.89024 c 4.03124,1.34455 9.59342,1.24526 13.09043,0.63625 4.26953,-0.74354 6.30906,-2.29044 4.89357,-3.73225 5.25034,1.82824 2.45778,4.24864 -3.11216,5.07929 -4.69327,0.69991 -12.14244,0.40122 -14.87184,-1.98329 z" id="path4285" inkscape:connector-curvature="0" sodipodi:nodetypes="cscsc"/><path sodipodi:nodetypes="cscsc" inkscape:connector-curvature="0" id="path4287" d="m 94.9172,194.89024 c 4.03124,1.34455 9.59342,1.24526 13.09043,0.63625 4.26953,-0.74354 6.30906,-2.29044 4.89357,-3.73225 5.25034,1.82824 2.45778,4.24864 -3.11216,5.07929 -4.69327,0.69991 -12.14244,0.40122 -14.87184,-1.98329 z" style="display:inline;fill:#000000;fill-opacity:1;fill-rule:evenodd;stroke:none;stroke-width:0.008;stroke-linecap:butt;stroke-linejoin:miter;stroke-miterlimit:4;stroke-dasharray:none;stroke-opacity:1"/><path style="display:inline;fill:#000000;fill-opacity:1;fill-rule:evenodd;stroke:none;stroke-width:0.008;stroke-linecap:butt;stroke-linejoin:miter;stroke-miterlimit:4;stroke-dasharray:none;stroke-opacity:1" d="m 65.4248,195.08764 c 4.03124,1.34455 9.59342,1.24526 13.09043,0.63625 4.26953,-0.74354 6.30906,-2.29044 4.89357,-3.73225 5.25034,1.82824 2.45778,4.24864 -3.11216,5.07929 -4.69327,0.69991 -12.14244,0.40122 -14.87184,-1.98329 z" id="path4289" inkscape:connector-curvature="0" sodipodi:nodetypes="cscsc"/><path sodipodi:nodetypes="cscsc" inkscape:connector-curvature="0" id="path4291" d="m 51.8337,204.05834 c 4.03124,1.34455 9.59342,1.24526 13.09043,0.63625 4.26953,-0.74354 6.30906,-2.29044 4.89357,-3.73225 5.25034,1.82824 2.45778,4.24864 -3.11216,5.07929 -4.69327,0.69991 -12.14244,0.40122 -14.87184,-1.98329 z" style="display:inline;fill:#000000;fill-opacity:1;fill-rule:evenodd;stroke:none;stroke-width:0.008;stroke-linecap:butt;stroke-linejoin:miter;stroke-miterlimit:4;stroke-dasharray:none;stroke-opacity:1"/><path style="display:inline;fill:#000000;fill-opacity:1;fill-rule:evenodd;stroke:none;stroke-width:0.008;stroke-linecap:butt;stroke-linejoin:miter;stroke-miterlimit:4;stroke-dasharray:none;stroke-opacity:1" d="m 79.594,203.83494 c 4.03124,1.34455 9.59342,1.24526 13.09043,0.63625 4.26953,-0.74354 6.30906,-2.29044 4.89357,-3.73225 5.25034,1.82824 2.45778,4.24864 -3.11216,5.07929 -4.69327,0.69991 -12.14244,0.40122 -14.87184,-1.98329 z" id="path4293" inkscape:connector-curvature="0" sodipodi:nodetypes="cscsc"/><path sodipodi:nodetypes="cscsc" inkscape:connector-curvature="0" id="path4295" d="m 108.5083,204.06054 c 4.03124,1.34455 9.59342,1.24526 13.09043,0.63625 4.26953,-0.74354 6.30906,-2.29044 4.89357,-3.73225 5.25034,1.82824 2.45778,4.24864 -3.11216,5.07929 -4.69327,0.69991 -12.14244,0.40122 -14.87184,-1.98329 z" style="display:inline;fill:#000000;fill-opacity:1;fill-rule:evenodd;stroke:none;stroke-width:0.008;stroke-linecap:butt;stroke-linejoin:miter;stroke-miterlimit:4;stroke-dasharray:none;stroke-opacity:1"/><path style="display:inline;fill:#000000;fill-opacity:1;fill-rule:evenodd;stroke:none;stroke-width:0.008;stroke-linecap:butt;stroke-linejoin:miter;stroke-miterlimit:4;stroke-dasharray:none;stroke-opacity:1" d="m 135.5799,203.63754 c 4.03124,1.34455 9.59342,1.24526 13.09043,0.63625 4.26953,-0.74354 6.30906,-2.29044 4.89357,-3.73225 5.25034,1.82824 2.45778,4.24864 -3.11216,5.07929 -4.69327,0.69991 -12.14244,0.40122 -14.87184,-1.98329 z" id="path4297" inkscape:connector-curvature="0" sodipodi:nodetypes="cscsc"/></g></svg>