<svg id="Logo_-_sign" data-name="Logo - sign" xmlns="http://www.w3.org/2000/svg" xmlns:xlink="http://www.w3.org/1999/xlink" width="411" height="113.241" viewBox="0 0 411 113.241">
  <defs>
    <clipPath id="clip-path">
      <path id="Clip_2" data-name="Clip 2" d="M0,0H81.717V81.719H0Z" fill="none"/>
    </clipPath>
    <clipPath id="clip-path-2">
      <path id="Clip_13" data-name="Clip 13" d="M0,90.176H387.927V0H0Z" fill="none"/>
    </clipPath>
  </defs>
  <path id="Combined_Shape" data-name="Combined Shape" d="M8.072,22.418V11.526L0,3.285,3.217,0,10.43,7.364,17.476.17l3.217,3.285L12.622,11.7V22.418Z" transform="translate(9.772 9.197)" fill="#fff"/>
  <g id="Group_92" data-name="Group 92">
    <g id="Group_3" data-name="Group 3" transform="translate(0 7.51)">
      <path id="Clip_2-2" data-name="Clip 2" d="M0,0H81.717V81.719H0Z" transform="translate(0 0)" fill="none"/>
      <g id="Group_3-2" data-name="Group 3" transform="translate(0 0)" clip-path="url(#clip-path)">
        <path id="Fill_1" data-name="Fill 1" d="M40.859,81.719A40.668,40.668,0,0,1,18.015,74.74a40.982,40.982,0,0,1-14.8-17.977A40.8,40.8,0,0,1,6.979,18.015a40.982,40.982,0,0,1,17.977-14.8A40.8,40.8,0,0,1,63.7,6.979a40.978,40.978,0,0,1,14.8,17.977A40.807,40.807,0,0,1,74.741,63.7a40.976,40.976,0,0,1-17.976,14.8A40.6,40.6,0,0,1,40.859,81.719Zm11.47-59.843a25.413,25.413,0,1,0,9.924,2A25.334,25.334,0,0,0,52.329,21.876Z" transform="translate(0 0)" fill="#1a1e3c"/>
      </g>
    </g>
    <path id="Fill_4" data-name="Fill 4" d="M26.587,10.455a12.962,12.962,0,0,0-4.5-5.044,11.841,11.841,0,0,0-6.323-1.633,10.724,10.724,0,0,0-8.2,3.663A12.9,12.9,0,0,0,4.2,16.507a12.7,12.7,0,0,0,3.383,9.018,10.959,10.959,0,0,0,8.349,3.623,11.617,11.617,0,0,0,6.422-1.788,11.272,11.272,0,0,0,4.231-5.029h4.434a15.94,15.94,0,0,1-5.71,7.868,15.364,15.364,0,0,1-9.178,2.784A15.353,15.353,0,0,1,4.672,28.168,16.05,16.05,0,0,1,0,16.564,16.121,16.121,0,0,1,4.728,4.818,15.533,15.533,0,0,1,16.25,0a15.147,15.147,0,0,1,8.961,2.742,16.437,16.437,0,0,1,5.81,7.712Z" transform="translate(88.592 9.263)" fill="#1a1e3c"/>
    <path id="Fill_6" data-name="Fill 6" d="M0,0H3.948V16.592q0,6.389,2.073,9.048T12.839,28.3A9.919,9.919,0,0,0,17.583,27.2a8.437,8.437,0,0,0,3.3-3.166A9.075,9.075,0,0,0,21.9,21.152a36.248,36.248,0,0,0,.311-5.783V0H26.22V31.25H22.215V27.869a11.172,11.172,0,0,1-4.061,3.214,13.39,13.39,0,0,1-5.427.992q-6.763,0-9.744-3.649T0,16.307Z" transform="translate(126.605 10.115)" fill="#1a1e3c"/>
    <path id="Fill_8" data-name="Fill 8" d="M16.024,32.757a16.514,16.514,0,0,1-6.3-1.175,15.278,15.278,0,0,1-5.15-3.525A15.875,15.875,0,0,1,1.143,22.8,17.262,17.262,0,0,1,0,16.45,17.336,17.336,0,0,1,1.168,10.01,15.81,15.81,0,0,1,4.674,4.719,15.612,15.612,0,0,1,9.932,1.18,17.108,17.108,0,0,1,16.364,0a15.014,15.014,0,0,1,6.62,1.465,13.242,13.242,0,0,1,5,4.219v-5H31.9v31.25h-3.92v-4.94a12.8,12.8,0,0,1-5.069,4.23A15.751,15.751,0,0,1,16.024,32.757ZM16.25,3.722a11.643,11.643,0,0,0-4.656.928A12.032,12.032,0,0,0,7.684,7.43,12.513,12.513,0,0,0,5.03,11.582a13.977,13.977,0,0,0-.884,5.038,12.929,12.929,0,0,0,.882,4.819,12.139,12.139,0,0,0,2.643,4,12.012,12.012,0,0,0,3.878,2.7,11.674,11.674,0,0,0,4.588.9,10.671,10.671,0,0,0,4.463-.948,12.25,12.25,0,0,0,3.846-2.845A13.01,13.01,0,0,0,27.1,21.063a13.662,13.662,0,0,0,.884-4.952,12.238,12.238,0,0,0-.887-4.657A12.9,12.9,0,0,0,24.432,7.43a12.461,12.461,0,0,0-3.821-2.781A10.486,10.486,0,0,0,16.25,3.722Z" transform="translate(158.879 9.432)" fill="#1a1e3c"/>
    <path id="Fill_10" data-name="Fill 10" d="M16.024,32.757a16.513,16.513,0,0,1-6.3-1.175,15.266,15.266,0,0,1-5.149-3.525A15.873,15.873,0,0,1,1.144,22.8,17.256,17.256,0,0,1,0,16.45,17.331,17.331,0,0,1,1.169,10.01a15.827,15.827,0,0,1,3.5-5.291A15.612,15.612,0,0,1,9.932,1.18,17.108,17.108,0,0,1,16.364,0a15.015,15.015,0,0,1,6.62,1.465,13.245,13.245,0,0,1,5,4.219v-5H31.9v31.25h-3.92v-4.94a12.793,12.793,0,0,1-5.069,4.23A15.751,15.751,0,0,1,16.024,32.757Zm.227-29.035a11.643,11.643,0,0,0-4.656.928A12.032,12.032,0,0,0,7.685,7.43a12.521,12.521,0,0,0-2.652,4.152,13.984,13.984,0,0,0-.884,5.038,12.936,12.936,0,0,0,.881,4.819,12.142,12.142,0,0,0,2.641,4,11.985,11.985,0,0,0,3.877,2.7,11.68,11.68,0,0,0,4.59.9,10.671,10.671,0,0,0,4.463-.948,12.245,12.245,0,0,0,3.846-2.845A13.01,13.01,0,0,0,27.1,21.063a13.662,13.662,0,0,0,.884-4.952,12.237,12.237,0,0,0-.887-4.657A12.906,12.906,0,0,0,24.433,7.43a12.466,12.466,0,0,0-3.822-2.781A10.485,10.485,0,0,0,16.251,3.722Z" transform="translate(196.807 9.432)" fill="#1a1e3c"/>
    <path id="Clip_13-2" data-name="Clip 13" d="M0,90.176H387.927V0H0Z" fill="none"/>
    <g id="Gruppe_maskieren_62" data-name="Gruppe maskieren 62" clip-path="url(#clip-path-2)">
      <path id="Fill_12" data-name="Fill 12" d="M0,3.779H13.324V0H0Z" transform="translate(235.786 23.866)" fill="#1a1e3c"/>
      <path id="Fill_14" data-name="Fill 14" d="M16.024,42.19A16.034,16.034,0,0,1,9.8,41a15.6,15.6,0,0,1-5.165-3.58,16.166,16.166,0,0,1-3.473-5.311A17.3,17.3,0,0,1,0,25.713a17.151,17.151,0,0,1,1.145-6.332,15.931,15.931,0,0,1,3.43-5.247,15.283,15.283,0,0,1,5.149-3.526,16.5,16.5,0,0,1,6.3-1.176,15.582,15.582,0,0,1,6.719,1.436,13.966,13.966,0,0,1,5.131,4.19V0h4.032V41.366H27.874V36.652a14.621,14.621,0,0,1-5.23,4.078A15.522,15.522,0,0,1,16.024,42.19Zm.113-29.035a11.667,11.667,0,0,0-4.586.9,12.013,12.013,0,0,0-3.878,2.7,12.164,12.164,0,0,0-2.642,4,12.852,12.852,0,0,0-.88,4.8,14.012,14.012,0,0,0,.884,5.042,12.568,12.568,0,0,0,2.653,4.162,12.032,12.032,0,0,0,3.91,2.79,11.6,11.6,0,0,0,4.653.931,10.467,10.467,0,0,0,4.363-.931,12.444,12.444,0,0,0,3.821-2.79A12.966,12.966,0,0,0,27.1,30.713a12.256,12.256,0,0,0,.889-4.66A13.628,13.628,0,0,0,27.1,21.1a12.93,12.93,0,0,0-2.654-4.169A12.251,12.251,0,0,0,20.6,14.1,10.7,10.7,0,0,0,16.137,13.155Z" transform="translate(254.735 0)" fill="#1a1e3c"/>
      <path id="Fill_15" data-name="Fill 15" d="M16.019,32.757a16.5,16.5,0,0,1-6.3-1.175A15.3,15.3,0,0,1,4.57,28.057,15.862,15.862,0,0,1,1.142,22.8,17.276,17.276,0,0,1,0,16.45,17.342,17.342,0,0,1,1.167,10.01,15.793,15.793,0,0,1,4.674,4.719,15.612,15.612,0,0,1,9.932,1.18,17.108,17.108,0,0,1,16.364,0a15.044,15.044,0,0,1,6.62,1.465,13.245,13.245,0,0,1,5,4.219v-5H31.9v31.25h-3.92v-4.94a12.823,12.823,0,0,1-5.075,4.23A15.748,15.748,0,0,1,16.019,32.757Zm.232-29.035a11.648,11.648,0,0,0-4.658.928A12.011,12.011,0,0,0,7.685,7.43,12.515,12.515,0,0,0,5.03,11.582a13.975,13.975,0,0,0-.884,5.038,12.934,12.934,0,0,0,.881,4.819,12.116,12.116,0,0,0,2.645,4,11.989,11.989,0,0,0,3.875,2.7,11.665,11.665,0,0,0,4.586.9,10.683,10.683,0,0,0,4.467-.948,12.226,12.226,0,0,0,3.845-2.845A13.008,13.008,0,0,0,27.1,21.063a13.656,13.656,0,0,0,.884-4.952,12.22,12.22,0,0,0-.889-4.657A12.935,12.935,0,0,0,24.429,7.43a12.439,12.439,0,0,0-3.821-2.781A10.481,10.481,0,0,0,16.251,3.722Z" transform="translate(292.668 9.432)" fill="#1a1e3c"/>
      <path id="Fill_16" data-name="Fill 16" d="M0,0H3.948V13.781A11.148,11.148,0,0,1,8.113,10.57,13.212,13.212,0,0,1,13.55,9.492q6.594,0,9.6,3.762t3.016,12.231v15.88H22.215V25.431q0-6.792-2.045-9.447t-6.846-2.657a10.054,10.054,0,0,0-4.787,1.093,8.074,8.074,0,0,0-3.251,3.138,9.05,9.05,0,0,0-1.041,2.914,36.811,36.811,0,0,0-.3,5.694v15.2H0Z" transform="translate(332.128 0)" fill="#1a1e3c"/>
      <path id="Fill_17" data-name="Fill 17" d="M21.593,31.25H0V27.473L16.307,3.779H1.819V0H20.74V4.321L4.772,27.245H21.593Z" transform="translate(363.295 10.115)" fill="#1a1e3c"/>
      <path id="Fill_18" data-name="Fill 18" d="M4.066,11.619a3.744,3.744,0,0,1-2.907-1.3A4.726,4.726,0,0,1,0,7.072,5.236,5.236,0,0,1,.288,5.343a4.5,4.5,0,0,1,.829-1.437A3.889,3.889,0,0,1,2.4,2.9a3.717,3.717,0,0,1,1.585-.325,3.481,3.481,0,0,1,1.465.316,3.854,3.854,0,0,1,1.24.947V0h1.4V11.426H6.676v-1.06a3.692,3.692,0,0,1-1.2.938A3.229,3.229,0,0,1,4.066,11.619Zm.044-7.538a2.46,2.46,0,0,0-1.882.862,3.029,3.029,0,0,0-.782,2.111,3.243,3.243,0,0,0,.782,2.2,2.465,2.465,0,0,0,1.911.885,2.378,2.378,0,0,0,1.818-.89,3.057,3.057,0,0,0,.787-2.083,3.268,3.268,0,0,0-.78-2.181A2.388,2.388,0,0,0,4.111,4.081Z" transform="translate(93.991 62.73)" fill="#1a1e3c"/>
      <path id="Fill_19" data-name="Fill 19" d="M4.028,9.117a3.7,3.7,0,0,1-1.576-.334A3.931,3.931,0,0,1,1.159,7.769,4.79,4.79,0,0,1,.308,6.29,5.018,5.018,0,0,1,0,4.565a5.1,5.1,0,0,1,.28-1.7A4.655,4.655,0,0,1,1.1,1.422,3.922,3.922,0,0,1,2.41.358,3.536,3.536,0,0,1,4,0,3.646,3.646,0,0,1,5.9.532,4.235,4.235,0,0,1,7.355,2.007a4.822,4.822,0,0,1,.5,1.291A7.146,7.146,0,0,1,8.019,4.9V5.15H1.476A3.041,3.041,0,0,0,2.355,6.9a2.372,2.372,0,0,0,1.673.669A2.269,2.269,0,0,0,5.286,7.2,2.6,2.6,0,0,0,6.2,6.162H7.769a4.948,4.948,0,0,1-1.5,2.2A3.535,3.535,0,0,1,4.028,9.117Zm.012-7.6a2.313,2.313,0,0,0-1.59.6A3.123,3.123,0,0,0,1.522,3.75H6.483a3.17,3.17,0,0,0-.9-1.649A2.212,2.212,0,0,0,4.04,1.516Z" transform="translate(103.264 65.266)" fill="#1a1e3c"/>
      <path id="Fill_20" data-name="Fill 20" d="M6.519,8.632H5.176V7.666a2.846,2.846,0,0,1-.935.877,2.386,2.386,0,0,1-1.161.283A2.745,2.745,0,0,1,.8,7.817,4.471,4.471,0,0,1,0,4.966V0H1.4V4.519a3.953,3.953,0,0,0,.445,2.1,1.472,1.472,0,0,0,1.333.7,1.744,1.744,0,0,0,.981-.283,2,2,0,0,0,.687-.82,2.864,2.864,0,0,0,.222-.787,11.467,11.467,0,0,0,.066-1.47V0H6.519Z" transform="translate(112.453 65.524)" fill="#1a1e3c"/>
      <path id="Fill_21" data-name="Fill 21" d="M1.1,11.426V4.207H0V2.794H1.1V0H2.5V2.794H3.6V4.207H2.5v7.219Z" transform="translate(120.037 62.731)" fill="#1a1e3c"/>
      <path id="Fill_22" data-name="Fill 22" d="M0,6.111H1.315a1.8,1.8,0,0,0,.339,1.126,1.047,1.047,0,0,0,.86.443,1.07,1.07,0,0,0,.8-.331A1.2,1.2,0,0,0,3.628,6.5a1.308,1.308,0,0,0-.222-.773,1.7,1.7,0,0,0-.716-.532c-.113-.051-.273-.122-.481-.2a4.317,4.317,0,0,1-1.05-.551A2.312,2.312,0,0,1,.542,3.6a2.731,2.731,0,0,1-.2-1.079A2.6,2.6,0,0,1,1.006.735,2.089,2.089,0,0,1,2.619,0,2.024,2.024,0,0,1,4.2.645a2.83,2.83,0,0,1,.64,1.819H3.5a1.173,1.173,0,0,0-.283-.748.85.85,0,0,0-.662-.264.785.785,0,0,0-.624.287,1.025,1.025,0,0,0-.252.706q0,.721,1.131,1.187l.5.212a2.787,2.787,0,0,1,1.267.994,2.987,2.987,0,0,1,.377,1.593A2.744,2.744,0,0,1,4.25,8.363a2.311,2.311,0,0,1-1.781.768A2.153,2.153,0,0,1,.725,8.325,3.656,3.656,0,0,1,0,6.111" transform="translate(124.108 65.252)" fill="#1a1e3c"/>
      <path id="Fill_23" data-name="Fill 23" d="M7.8,5.951a4.851,4.851,0,0,1-1.447,2.36,3.481,3.481,0,0,1-2.337.806,3.739,3.739,0,0,1-1.576-.33,3.872,3.872,0,0,1-1.277-1A4.662,4.662,0,0,1,.309,6.3,4.921,4.921,0,0,1,0,4.584,4.97,4.97,0,0,1,.281,2.893,4.584,4.584,0,0,1,1.1,1.451,4.232,4.232,0,0,1,2.453.367,3.579,3.579,0,0,1,4.055,0,3.506,3.506,0,0,1,6.373.82,4.619,4.619,0,0,1,7.8,3.124H6.264a2.833,2.833,0,0,0-.947-1.187,2.42,2.42,0,0,0-1.382-.391,2.218,2.218,0,0,0-1.762.871,3.243,3.243,0,0,0-.723,2.149,3.2,3.2,0,0,0,.735,2.158,2.29,2.29,0,0,0,1.828.862,2.2,2.2,0,0,0,1.328-.425,2.818,2.818,0,0,0,.924-1.211Z" transform="translate(129.848 65.265)" fill="#1a1e3c"/>
      <path id="Fill_24" data-name="Fill 24" d="M1.4,11.426H0V0H1.4V3.774a2.243,2.243,0,0,1,.876-.839,2.691,2.691,0,0,1,1.263-.282,2.626,2.626,0,0,1,2.2,1,4.484,4.484,0,0,1,.785,2.818v4.952h-1.4V6.978a4.128,4.128,0,0,0-.438-2.135,1.476,1.476,0,0,0-1.343-.7,1.722,1.722,0,0,0-.975.282,1.967,1.967,0,0,0-.678.82,2.688,2.688,0,0,0-.221.782A11.063,11.063,0,0,0,1.4,7.5Z" transform="translate(139.039 62.731)" fill="#1a1e3c"/>
      <path id="Fill_25" data-name="Fill 25" d="M0,1.447H3.515V0H0Z" transform="translate(147.02 69.124)" fill="#1a1e3c"/>
      <path id="Fill_26" data-name="Fill 26" d="M4.068,9.046a3.745,3.745,0,0,1-2.909-1.3A4.724,4.724,0,0,1,0,4.5,5.187,5.187,0,0,1,.29,2.77a4.539,4.539,0,0,1,.825-1.437A3.977,3.977,0,0,1,2.4.325,3.7,3.7,0,0,1,3.984,0a3.475,3.475,0,0,1,1.47.316,3.694,3.694,0,0,1,1.22.947V.221H8.088V8.853H6.674V7.793a3.674,3.674,0,0,1-1.2.938A3.213,3.213,0,0,1,4.068,9.046Zm.043-7.539a2.453,2.453,0,0,0-1.881.862,3.013,3.013,0,0,0-.782,2.111,3.223,3.223,0,0,0,.782,2.2,2.457,2.457,0,0,0,1.908.886,2.381,2.381,0,0,0,1.819-.891,3.054,3.054,0,0,0,.787-2.082,3.257,3.257,0,0,0-.78-2.182A2.388,2.388,0,0,0,4.111,1.508Z" transform="translate(151.602 65.303)" fill="#1a1e3c"/>
      <path id="Fill_27" data-name="Fill 27" d="M1.4,8.773H0V.141H1.315v1A2.429,2.429,0,0,1,2.106.287,1.953,1.953,0,0,1,3.148,0V1.625A1.8,1.8,0,0,0,1.8,2.238,2.908,2.908,0,0,0,1.4,3.971Z" transform="translate(161.329 65.383)" fill="#1a1e3c"/>
      <path id="Fill_28" data-name="Fill 28" d="M4.142,12.226a3.721,3.721,0,0,1-2.284-.7A3.822,3.822,0,0,1,.509,9.546H2a2.371,2.371,0,0,0,.853.918,2.3,2.3,0,0,0,1.2.321,2.459,2.459,0,0,0,1.9-.792A2.985,2.985,0,0,0,6.676,7.9V7.793a3.689,3.689,0,0,1-1.2.938,3.242,3.242,0,0,1-1.411.315,3.746,3.746,0,0,1-2.91-1.3A4.726,4.726,0,0,1,0,4.5,5.187,5.187,0,0,1,.29,2.77a4.5,4.5,0,0,1,.827-1.437A3.955,3.955,0,0,1,2.4.325,3.739,3.739,0,0,1,3.986,0,3.476,3.476,0,0,1,5.449.316a3.885,3.885,0,0,1,1.242.947V.221h1.4v7.2A5.4,5.4,0,0,1,7.034,10.95,3.56,3.56,0,0,1,4.142,12.226ZM4.111,1.508a2.468,2.468,0,0,0-1.882.862,3.018,3.018,0,0,0-.78,2.111,3.229,3.229,0,0,0,.78,2.2,2.444,2.444,0,0,0,1.913.886A2.386,2.386,0,0,0,5.96,6.676a3.063,3.063,0,0,0,.787-2.082,3.258,3.258,0,0,0-.782-2.182A2.38,2.38,0,0,0,4.111,1.508Z" transform="translate(165.098 65.303)" fill="#1a1e3c"/>
      <path id="Fill_29" data-name="Fill 29" d="M4.026,9.117A3.714,3.714,0,0,1,2.45,8.782,3.924,3.924,0,0,1,1.157,7.769,4.793,4.793,0,0,1,.306,6.29,5.157,5.157,0,0,1,.28,2.865,4.606,4.606,0,0,1,1.1,1.422,3.94,3.94,0,0,1,2.407.358,3.553,3.553,0,0,1,4,0,3.66,3.66,0,0,1,5.9.532,4.24,4.24,0,0,1,7.352,2.007a4.7,4.7,0,0,1,.5,1.291A7.037,7.037,0,0,1,8.017,4.9V5.15H1.476A3.04,3.04,0,0,0,2.353,6.9a2.37,2.37,0,0,0,1.673.669A2.285,2.285,0,0,0,5.286,7.2a2.608,2.608,0,0,0,.907-1.041H7.769a4.975,4.975,0,0,1-1.5,2.2A3.527,3.527,0,0,1,4.026,9.117Zm.014-7.6a2.32,2.32,0,0,0-1.593.6,3.14,3.14,0,0,0-.93,1.635H6.483a3.156,3.156,0,0,0-.9-1.649A2.2,2.2,0,0,0,4.04,1.516Z" transform="translate(174.373 65.266)" fill="#1a1e3c"/>
      <path id="Fill_30" data-name="Fill 30" d="M1.4,8.773H0V.141H1.343v.98A2.846,2.846,0,0,1,2.3.273,2.566,2.566,0,0,1,3.51,0,2.855,2.855,0,0,1,5.852,1a4.406,4.406,0,0,1,.815,2.855V8.773H5.26V4.188A3.614,3.614,0,0,0,4.8,2.153a1.607,1.607,0,0,0-1.418-.664,1.646,1.646,0,0,0-1.518.782A5.275,5.275,0,0,0,1.4,4.848Z" transform="translate(183.605 65.383)" fill="#1a1e3c"/>
      <path id="Fill_31" data-name="Fill 31" d="M1.1,11.426V4.207H0V2.794H1.1V0h1.39V2.794h1.1V4.207h-1.1v7.219Z" transform="translate(191.28 62.731)" fill="#1a1e3c"/>
      <path id="Fill_32" data-name="Fill 32" d="M1.383,11.427H0V2.794H1.383v8.632Zm0-9.645H0V0H1.383V1.781Z" transform="translate(195.885 62.73)" fill="#1a1e3c"/>
      <path id="Fill_33" data-name="Fill 33" d="M1.4,8.773H0V.141H1.343v.98A2.878,2.878,0,0,1,2.3.273,2.577,2.577,0,0,1,3.51,0,2.848,2.848,0,0,1,5.852,1a4.389,4.389,0,0,1,.816,2.855V8.773h-1.4V4.188A3.617,3.617,0,0,0,4.8,2.153a1.6,1.6,0,0,0-1.419-.664,1.639,1.639,0,0,0-1.515.782A5.255,5.255,0,0,0,1.4,4.848Z" transform="translate(198.936 65.383)" fill="#1a1e3c"/>
      <path id="Fill_34" data-name="Fill 34" d="M1.385,11.427H0V2.794H1.385v8.632Zm0-9.645H0V0H1.385V1.781Z" transform="translate(207.243 62.73)" fill="#1a1e3c"/>
      <path id="Fill_35" data-name="Fill 35" d="M0,6.111H1.312a1.8,1.8,0,0,0,.341,1.126,1.044,1.044,0,0,0,.858.443,1.067,1.067,0,0,0,.8-.331A1.191,1.191,0,0,0,3.628,6.5a1.325,1.325,0,0,0-.221-.773,1.726,1.726,0,0,0-.716-.532c-.114-.051-.274-.122-.481-.2a4.308,4.308,0,0,1-1.053-.551A2.312,2.312,0,0,1,.542,3.6a2.742,2.742,0,0,1-.2-1.079A2.6,2.6,0,0,1,1,.735,2.094,2.094,0,0,1,2.62,0,2.022,2.022,0,0,1,4.2.645a2.835,2.835,0,0,1,.643,1.819H3.5a1.2,1.2,0,0,0-.283-.748.855.855,0,0,0-.664-.264.781.781,0,0,0-.622.287,1.013,1.013,0,0,0-.255.706q0,.721,1.131,1.187l.5.212a2.809,2.809,0,0,1,1.267.994,2.992,2.992,0,0,1,.377,1.593A2.746,2.746,0,0,1,4.25,8.363a2.314,2.314,0,0,1-1.781.768A2.148,2.148,0,0,1,.726,8.325,3.637,3.637,0,0,1,0,6.111" transform="translate(209.759 65.252)" fill="#1a1e3c"/>
      <path id="Fill_36" data-name="Fill 36" d="M7.8,5.951a4.86,4.86,0,0,1-1.447,2.36,3.484,3.484,0,0,1-2.337.806,3.745,3.745,0,0,1-1.578-.33,3.891,3.891,0,0,1-1.277-1A4.706,4.706,0,0,1,.309,6.3,5.086,5.086,0,0,1,.281,2.893,4.616,4.616,0,0,1,1.1,1.451,4.238,4.238,0,0,1,2.452.367,3.589,3.589,0,0,1,4.057,0,3.5,3.5,0,0,1,6.373.82,4.661,4.661,0,0,1,7.8,3.124H6.266a2.833,2.833,0,0,0-.947-1.187,2.425,2.425,0,0,0-1.385-.391,2.22,2.22,0,0,0-1.762.871,3.255,3.255,0,0,0-.724,2.149,3.206,3.206,0,0,0,.735,2.158,2.3,2.3,0,0,0,1.83.862,2.19,2.19,0,0,0,1.327-.425,2.825,2.825,0,0,0,.925-1.211Z" transform="translate(215.498 65.265)" fill="#1a1e3c"/>
      <path id="Fill_37" data-name="Fill 37" d="M1.4,11.426H0V0H1.4V3.774a2.227,2.227,0,0,1,.879-.839,2.679,2.679,0,0,1,1.261-.282,2.63,2.63,0,0,1,2.2,1,4.484,4.484,0,0,1,.782,2.818v4.952H5.12V6.978a4.13,4.13,0,0,0-.436-2.135,1.471,1.471,0,0,0-1.34-.7,1.72,1.72,0,0,0-.975.282,1.968,1.968,0,0,0-.679.82,2.668,2.668,0,0,0-.224.782A11.477,11.477,0,0,0,1.4,7.5Z" transform="translate(224.687 62.731)" fill="#1a1e3c"/>
      <path id="Fill_38" data-name="Fill 38" d="M4.026,9.117a3.723,3.723,0,0,1-1.577-.334,3.934,3.934,0,0,1-1.29-1.013A4.794,4.794,0,0,1,.306,6.29,5,5,0,0,1,0,4.565a5.161,5.161,0,0,1,.278-1.7A4.667,4.667,0,0,1,1.1,1.422,3.916,3.916,0,0,1,2.407.358,3.554,3.554,0,0,1,4,0,3.644,3.644,0,0,1,5.9.532,4.254,4.254,0,0,1,7.352,2.007a4.793,4.793,0,0,1,.5,1.291A7.176,7.176,0,0,1,8.014,4.9V5.15H1.474A3.032,3.032,0,0,0,2.355,6.9a2.351,2.351,0,0,0,1.67.669A2.27,2.27,0,0,0,5.286,7.2,2.615,2.615,0,0,0,6.2,6.162H7.769a4.926,4.926,0,0,1-1.5,2.2A3.513,3.513,0,0,1,4.026,9.117Zm.014-7.6a2.337,2.337,0,0,0-1.594.6A3.147,3.147,0,0,0,1.517,3.75H6.483a3.182,3.182,0,0,0-.9-1.649A2.209,2.209,0,0,0,4.04,1.516Z" transform="translate(232.422 65.266)" fill="#1a1e3c"/>
      <path id="Fill_39" data-name="Fill 39" d="M0,6.111H1.315a1.772,1.772,0,0,0,.344,1.126,1.036,1.036,0,0,0,.857.443,1.067,1.067,0,0,0,.8-.331A1.191,1.191,0,0,0,3.633,6.5a1.313,1.313,0,0,0-.224-.773,1.716,1.716,0,0,0-.719-.532c-.111-.051-.274-.122-.478-.2a4.356,4.356,0,0,1-1.053-.551A2.279,2.279,0,0,1,.547,3.6a2.7,2.7,0,0,1-.2-1.079A2.592,2.592,0,0,1,1.009.735,2.079,2.079,0,0,1,2.62,0,2.019,2.019,0,0,1,4.2.645a2.819,2.819,0,0,1,.643,1.819H3.506a1.2,1.2,0,0,0-.283-.748.853.853,0,0,0-.664-.264.8.8,0,0,0-.627.287,1.034,1.034,0,0,0-.249.706q0,.721,1.131,1.187l.5.212a2.8,2.8,0,0,1,1.27.994,2.966,2.966,0,0,1,.377,1.593,2.752,2.752,0,0,1-.7,1.932,2.312,2.312,0,0,1-1.781.768A2.149,2.149,0,0,1,.731,8.325,3.668,3.668,0,0,1,0,6.111" transform="translate(241.114 65.252)" fill="#1a1e3c"/>
      <path id="Fill_40" data-name="Fill 40" d="M1.4,11.421H0V0H1.4V3.774a2.186,2.186,0,0,1,.881-.839,2.609,2.609,0,0,1,1.258-.287,2.648,2.648,0,0,1,2.2,1,4.506,4.506,0,0,1,.782,2.818v4.952h-1.4V6.973a4.1,4.1,0,0,0-.438-2.134,1.472,1.472,0,0,0-1.343-.7,1.7,1.7,0,0,0-.971.282,1.992,1.992,0,0,0-.681.815,2.806,2.806,0,0,0-.221.782A11.445,11.445,0,0,0,1.4,7.5Z" transform="translate(127.806 77.454)" fill="#1a1e3c"/>
      <path id="Fill_41" data-name="Fill 41" d="M4.023,9.15A3.663,3.663,0,0,1,2.45,8.811,3.994,3.994,0,0,1,1.157,7.8a4.781,4.781,0,0,1-.851-1.48A5.094,5.094,0,0,1,0,4.6,5.2,5.2,0,0,1,.278,2.884,4.45,4.45,0,0,1,1.1,1.452,4.227,4.227,0,0,1,2.422.378,3.332,3.332,0,0,1,3.946,0,3.68,3.68,0,0,1,5.52.339a4.065,4.065,0,0,1,1.307.994A4.729,4.729,0,0,1,7.708,2.8a4.8,4.8,0,0,1,.306,1.687,5.3,5.3,0,0,1-.285,1.724,4.618,4.618,0,0,1-.8,1.466A4.184,4.184,0,0,1,5.6,8.778,3.467,3.467,0,0,1,4.023,9.15Zm-.014-7.6a2.312,2.312,0,0,0-1.823.867,3.241,3.241,0,0,0-.74,2.172,3.2,3.2,0,0,0,.74,2.158A2.324,2.324,0,0,0,4.023,7.6a2.291,2.291,0,0,0,1.814-.868,3.281,3.281,0,0,0,.731-2.171A3.232,3.232,0,0,0,5.837,2.4,2.322,2.322,0,0,0,4.009,1.546Z" transform="translate(135.529 79.97)" fill="#1a1e3c"/>
      <path id="Fill_42" data-name="Fill 42" d="M7.8,5.946A4.868,4.868,0,0,1,6.348,8.311a3.511,3.511,0,0,1-2.337.806,3.68,3.68,0,0,1-1.576-.335,3.887,3.887,0,0,1-1.277-1A4.821,4.821,0,0,1,.306,6.3,5.147,5.147,0,0,1,.278,2.888,4.713,4.713,0,0,1,1.1,1.451,4.1,4.1,0,0,1,2.45.367,3.525,3.525,0,0,1,4.052,0,3.5,3.5,0,0,1,6.37.82,4.622,4.622,0,0,1,7.8,3.124H6.266a2.781,2.781,0,0,0-.947-1.188,2.391,2.391,0,0,0-1.385-.39,2.205,2.205,0,0,0-1.762.871,3.247,3.247,0,0,0-.725,2.149,3.226,3.226,0,0,0,.735,2.158,2.313,2.313,0,0,0,1.831.862,2.192,2.192,0,0,0,1.326-.429,2.789,2.789,0,0,0,.928-1.211Z" transform="translate(144.32 79.989)" fill="#1a1e3c"/>
      <path id="Fill_43" data-name="Fill 43" d="M1.4,11.421H0V0H1.4V3.774a2.2,2.2,0,0,1,.881-.839,2.621,2.621,0,0,1,1.261-.287,2.641,2.641,0,0,1,2.2,1,4.492,4.492,0,0,1,.785,2.818v4.952h-1.4V6.973a4.1,4.1,0,0,0-.439-2.134,1.472,1.472,0,0,0-1.343-.7,1.711,1.711,0,0,0-.973.282,1.985,1.985,0,0,0-.679.815,2.8,2.8,0,0,0-.224.782A12,12,0,0,0,1.4,7.5Z" transform="translate(153.51 77.454)" fill="#1a1e3c"/>
      <path id="Fill_44" data-name="Fill 44" d="M0,6.116H1.315a1.805,1.805,0,0,0,.339,1.126,1.052,1.052,0,0,0,.86.439,1.053,1.053,0,0,0,.8-.33A1.194,1.194,0,0,0,3.628,6.5a1.293,1.293,0,0,0-.221-.768A1.667,1.667,0,0,0,2.69,5.2c-.113-.052-.273-.122-.481-.2a4.448,4.448,0,0,1-1.051-.551,2.3,2.3,0,0,1-.617-.834,2.776,2.776,0,0,1-.2-1.079A2.586,2.586,0,0,1,1.006.74,2.076,2.076,0,0,1,2.619,0,2.026,2.026,0,0,1,4.2.65a2.8,2.8,0,0,1,.641,1.814H3.5a1.16,1.16,0,0,0-.283-.744.857.857,0,0,0-.662-.269.809.809,0,0,0-.627.287,1.045,1.045,0,0,0-.249.712c0,.481.377.876,1.131,1.182l.5.212a2.84,2.84,0,0,1,1.267,1,2.965,2.965,0,0,1,.377,1.593A2.749,2.749,0,0,1,4.25,8.368a2.311,2.311,0,0,1-1.781.769A2.143,2.143,0,0,1,.725,8.326,3.655,3.655,0,0,1,0,6.116" transform="translate(161.145 79.97)" fill="#1a1e3c"/>
      <path id="Fill_45" data-name="Fill 45" d="M7.8,5.946A4.869,4.869,0,0,1,6.349,8.311a3.513,3.513,0,0,1-2.337.806,3.668,3.668,0,0,1-1.576-.335,3.852,3.852,0,0,1-1.277-1A4.753,4.753,0,0,1,.306,6.3,5.118,5.118,0,0,1,.281,2.888,4.651,4.651,0,0,1,1.1,1.451,4.146,4.146,0,0,1,2.45.367,3.528,3.528,0,0,1,4.054,0,3.508,3.508,0,0,1,6.373.82,4.615,4.615,0,0,1,7.8,3.124H6.264a2.785,2.785,0,0,0-.947-1.188,2.389,2.389,0,0,0-1.385-.39,2.2,2.2,0,0,0-1.76.871,3.243,3.243,0,0,0-.724,2.149,3.214,3.214,0,0,0,.735,2.158,2.3,2.3,0,0,0,1.828.862,2.205,2.205,0,0,0,1.329-.429,2.767,2.767,0,0,0,.923-1.211Z" transform="translate(166.886 79.989)" fill="#1a1e3c"/>
      <path id="Fill_46" data-name="Fill 46" d="M1.4,11.421H0V0H1.4V3.774a2.185,2.185,0,0,1,.876-.839,2.637,2.637,0,0,1,1.263-.287,2.639,2.639,0,0,1,2.2,1,4.492,4.492,0,0,1,.782,2.818v4.952H5.122V6.973a4.1,4.1,0,0,0-.44-2.134,1.468,1.468,0,0,0-1.34-.7,1.721,1.721,0,0,0-.975.282,1.983,1.983,0,0,0-.678.815,2.694,2.694,0,0,0-.221.782A11.132,11.132,0,0,0,1.4,7.5Z" transform="translate(176.076 77.454)" fill="#1a1e3c"/>
      <path id="Fill_47" data-name="Fill 47" d="M6.519,8.632H5.178V7.666a2.836,2.836,0,0,1-.938.881,2.379,2.379,0,0,1-1.159.283A2.731,2.731,0,0,1,.806,7.816,4.454,4.454,0,0,1,0,4.971V0H1.4V4.523a3.972,3.972,0,0,0,.443,2.092,1.484,1.484,0,0,0,1.338.7,1.71,1.71,0,0,0,.98-.287,2.009,2.009,0,0,0,.686-.82,2.807,2.807,0,0,0,.222-.787,11.267,11.267,0,0,0,.068-1.465V0H6.519Z" transform="translate(184.204 80.243)" fill="#1a1e3c"/>
      <path id="Fill_48" data-name="Fill 48" d="M0,11.421H1.385V0H0Z" transform="translate(192.418 77.454)" fill="#1a1e3c"/>
      <path id="Fill_49" data-name="Fill 49" d="M5.369,8.632H0V7.378L3.753,1.413H.452V0h4.7V1.6L1.651,7.176H5.369Z" transform="translate(194.783 80.243)" fill="#1a1e3c"/>
      <path id="Fill_50" data-name="Fill 50" d="M4.023,9.117a3.645,3.645,0,0,1-1.574-.339A3.818,3.818,0,0,1,1.158,7.764a4.683,4.683,0,0,1-.853-1.48,5.159,5.159,0,0,1-.028-3.42A4.655,4.655,0,0,1,1.1,1.418,3.956,3.956,0,0,1,2.407.353,3.606,3.606,0,0,1,3.995,0,3.621,3.621,0,0,1,5.9.528,4.2,4.2,0,0,1,7.35,2.007a4.714,4.714,0,0,1,.5,1.291,7.183,7.183,0,0,1,.16,1.6v.245H1.474A3.019,3.019,0,0,0,2.355,6.9a2.337,2.337,0,0,0,1.668.674A2.289,2.289,0,0,0,5.286,7.2a2.6,2.6,0,0,0,.906-1.046H7.769a4.91,4.91,0,0,1-1.5,2.2A3.519,3.519,0,0,1,4.023,9.117Zm.014-7.6a2.322,2.322,0,0,0-1.592.6,3.141,3.141,0,0,0-.929,1.64H6.483a3.166,3.166,0,0,0-.9-1.654A2.216,2.216,0,0,0,4.037,1.512Z" transform="translate(200.859 79.99)" fill="#1a1e3c"/>
      <path id="Fill_51" data-name="Fill 51" d="M1.4,8.773H0V.141H1.343v.985A2.868,2.868,0,0,1,2.306.274,2.61,2.61,0,0,1,3.51,0,2.85,2.85,0,0,1,5.852,1a4.413,4.413,0,0,1,.815,2.855V8.773h-1.4V4.193A3.616,3.616,0,0,0,4.8,2.158a1.609,1.609,0,0,0-1.421-.664,1.629,1.629,0,0,0-1.515.782A5.255,5.255,0,0,0,1.4,4.853Z" transform="translate(210.089 80.102)" fill="#1a1e3c"/>
      <path id="Fill_52" data-name="Fill 52" d="M1.1,11.421V4.2H0V2.789H1.1V0H2.5V2.789h1.1V4.2H2.5v7.218Z" transform="translate(217.764 77.454)" fill="#1a1e3c"/>
      <path id="Fill_53" data-name="Fill 53" d="M1.4,8.773H0V.141H1.315v1A2.475,2.475,0,0,1,2.106.287,2.007,2.007,0,0,1,3.148,0V1.626A1.77,1.77,0,0,0,1.8,2.243,2.889,2.889,0,0,0,1.4,3.972Z" transform="translate(222.386 80.102)" fill="#1a1e3c"/>
      <path id="Fill_54" data-name="Fill 54" d="M6.521,8.632H5.179V7.666a2.843,2.843,0,0,1-.938.881,2.374,2.374,0,0,1-1.158.283A2.73,2.73,0,0,1,.806,7.816,4.454,4.454,0,0,1,0,4.971V0H1.4V4.523a3.953,3.953,0,0,0,.445,2.092,1.48,1.48,0,0,0,1.336.7,1.712,1.712,0,0,0,.981-.287,2.008,2.008,0,0,0,.685-.82,2.864,2.864,0,0,0,.224-.787,11.24,11.24,0,0,0,.066-1.465V0H6.521Z" transform="translate(226.508 80.243)" fill="#1a1e3c"/>
      <path id="Fill_55" data-name="Fill 55" d="M4.761,4.419a4.915,4.915,0,0,0-.4-2.29,1.35,1.35,0,0,0-1.272-.716,1.445,1.445,0,0,0-1.331.716,4.5,4.5,0,0,0-.429,2.229V8.772H0V.141H1.244V1.154A2.727,2.727,0,0,1,2.12.287,2.188,2.188,0,0,1,3.235,0,2.566,2.566,0,0,1,4.643.362a2.6,2.6,0,0,1,.923,1.131A2.562,2.562,0,0,1,6.523.372,2.708,2.708,0,0,1,7.975,0a2.61,2.61,0,0,1,2.111.957A3.857,3.857,0,0,1,10.877,3.5V8.772h-1.4V3.746a2.929,2.929,0,0,0-.438-1.72,1.4,1.4,0,0,0-1.216-.612,1.409,1.409,0,0,0-1.3.65,4.494,4.494,0,0,0-.4,2.2V8.772H4.761Z" transform="translate(234.738 80.102)" fill="#1a1e3c"/>
      <path id="Fill_56" data-name="Fill 56" d="M7.8,5.951A4.9,4.9,0,0,1,6.348,8.317a3.515,3.515,0,0,1-2.339.806,3.665,3.665,0,0,1-1.573-.335,3.842,3.842,0,0,1-1.277-1A4.734,4.734,0,0,1,.306,6.3,4.937,4.937,0,0,1,0,4.585,5.088,5.088,0,0,1,.278,2.894,4.718,4.718,0,0,1,1.1,1.452,4.206,4.206,0,0,1,2.449.372,3.6,3.6,0,0,1,4.051,0,3.5,3.5,0,0,1,6.37.82,4.662,4.662,0,0,1,7.8,3.124H6.266a2.838,2.838,0,0,0-.947-1.183,2.4,2.4,0,0,0-1.385-.4,2.217,2.217,0,0,0-1.762.872,3.257,3.257,0,0,0-.726,2.153,3.214,3.214,0,0,0,.735,2.158,2.3,2.3,0,0,0,1.828.862,2.206,2.206,0,0,0,1.329-.429,2.794,2.794,0,0,0,.928-1.211Z" transform="translate(264.145 51.088)" fill="#1a1e3c"/>
      <path id="Fill_57" data-name="Fill 57" d="M4.028,9.122a3.629,3.629,0,0,1-1.576-.339A3.841,3.841,0,0,1,1.159,7.769,4.759,4.759,0,0,1,.309,6.3,5.037,5.037,0,0,1,0,4.57,5.144,5.144,0,0,1,.278,2.865,4.7,4.7,0,0,1,1.1,1.423a3.94,3.94,0,0,1,1.3-1.06A3.555,3.555,0,0,1,4,0,3.636,3.636,0,0,1,5.9.533,4.247,4.247,0,0,1,7.352,2.012a4.681,4.681,0,0,1,.5,1.291A7.146,7.146,0,0,1,8.019,4.91v.24H1.479a3.012,3.012,0,0,0,.876,1.757,2.365,2.365,0,0,0,1.673.669A2.286,2.286,0,0,0,5.288,7.2,2.62,2.62,0,0,0,6.2,6.163H7.769a4.924,4.924,0,0,1-1.5,2.2A3.509,3.509,0,0,1,4.028,9.122Zm.014-7.6a2.342,2.342,0,0,0-1.6.6,3.087,3.087,0,0,0-.926,1.635H6.483a3.236,3.236,0,0,0-.9-1.654A2.243,2.243,0,0,0,4.042,1.517Z" transform="translate(272.895 51.088)" fill="#1a1e3c"/>
      <path id="Fill_58" data-name="Fill 58" d="M1.4,8.773H0V.137H1.346v.98A2.838,2.838,0,0,1,2.309.268,2.561,2.561,0,0,1,3.516,0,2.845,2.845,0,0,1,5.852.994a4.389,4.389,0,0,1,.82,2.855V8.773H5.263V4.188a3.616,3.616,0,0,0-.457-2.035,1.609,1.609,0,0,0-1.423-.664,1.63,1.63,0,0,0-1.513.782A5.224,5.224,0,0,0,1.4,4.843Z" transform="translate(282.124 51.211)" fill="#1a1e3c"/>
      <path id="Fill_59" data-name="Fill 59" d="M1.1,11.43V4.208H0V2.794H1.1V0h1.39V2.794h1.1V4.208h-1.1V11.43Z" transform="translate(289.804 48.553)" fill="#1a1e3c"/>
      <path id="Fill_60" data-name="Fill 60" d="M1.4,8.773H0V.137H1.315v1a2.516,2.516,0,0,1,.8-.853A1.992,1.992,0,0,1,3.152,0V1.621A1.785,1.785,0,0,0,1.8,2.238,2.923,2.923,0,0,0,1.4,3.967Z" transform="translate(294.421 51.211)" fill="#1a1e3c"/>
      <path id="Fill_61" data-name="Fill 61" d="M4.024,9.15A3.671,3.671,0,0,1,2.45,8.811,4,4,0,0,1,1.154,7.8,4.792,4.792,0,0,1,.306,6.319,5.02,5.02,0,0,1,0,4.6,5.12,5.12,0,0,1,.278,2.884,4.408,4.408,0,0,1,1.1,1.452,4.309,4.309,0,0,1,2.422.378,3.34,3.34,0,0,1,3.948,0,3.652,3.652,0,0,1,5.517.34a3.974,3.974,0,0,1,1.31.994A4.691,4.691,0,0,1,7.708,2.8a4.811,4.811,0,0,1,.306,1.687,5.215,5.215,0,0,1-.287,1.724,4.645,4.645,0,0,1-.8,1.471A4.065,4.065,0,0,1,5.593,8.778,3.429,3.429,0,0,1,4.024,9.15Zm-.014-7.6a2.3,2.3,0,0,0-1.824.867,3.24,3.24,0,0,0-.739,2.172,3.205,3.205,0,0,0,.739,2.158A2.326,2.326,0,0,0,4.024,7.6a2.278,2.278,0,0,0,1.81-.867,3.24,3.24,0,0,0,.735-2.167A3.222,3.222,0,0,0,5.834,2.4,2.308,2.308,0,0,0,4.01,1.546Z" transform="translate(298.139 51.074)" fill="#1a1e3c"/>
      <path id="Fill_62" data-name="Fill 62" d="M6.521,8.636H5.178V7.67a2.8,2.8,0,0,1-.938.872,2.323,2.323,0,0,1-1.159.287A2.744,2.744,0,0,1,.806,7.816,4.454,4.454,0,0,1,0,4.971V0H1.4V4.523a4,4,0,0,0,.443,2.1,1.486,1.486,0,0,0,1.338.7,1.748,1.748,0,0,0,.981-.287,1.956,1.956,0,0,0,.688-.82,2.747,2.747,0,0,0,.221-.786,11.707,11.707,0,0,0,.066-1.466V0H6.521Z" transform="translate(311.449 51.348)" fill="#1a1e3c"/>
      <path id="Fill_63" data-name="Fill 63" d="M1.395,8.773H0V.137H1.343v.98A2.875,2.875,0,0,1,2.3.268,2.561,2.561,0,0,1,3.51,0,2.86,2.86,0,0,1,5.852.994,4.415,4.415,0,0,1,6.667,3.85V8.773H5.259V4.188A3.615,3.615,0,0,0,4.8,2.153a1.6,1.6,0,0,0-1.418-.664,1.637,1.637,0,0,0-1.518.782,5.25,5.25,0,0,0-.471,2.573Z" transform="translate(319.666 51.211)" fill="#1a1e3c"/>
      <path id="Fill_64" data-name="Fill 64" d="M1.385,11.43H0V2.794H1.385v8.635Zm0-9.644H0V0H1.386V1.785Z" transform="translate(327.972 48.554)" fill="#1a1e3c"/>
      <path id="Fill_65" data-name="Fill 65" d="M4,8.636H2.949L0,0H1.5L3.548,6.3,5.645,0H7.119Z" transform="translate(330.225 51.348)" fill="#1a1e3c"/>
      <path id="Fill_66" data-name="Fill 66" d="M4.028,9.122a3.656,3.656,0,0,1-1.579-.339A3.942,3.942,0,0,1,1.158,7.769,4.828,4.828,0,0,1,.306,6.3,5.1,5.1,0,0,1,0,4.57,5.017,5.017,0,0,1,.282,2.865,4.573,4.573,0,0,1,1.1,1.423,3.911,3.911,0,0,1,2.412.363,3.5,3.5,0,0,1,4,0,3.648,3.648,0,0,1,5.9.533,4.283,4.283,0,0,1,7.355,2.012a4.68,4.68,0,0,1,.5,1.291,7.208,7.208,0,0,1,.16,1.607v.24H1.479a3.006,3.006,0,0,0,.876,1.757,2.356,2.356,0,0,0,1.673.669A2.275,2.275,0,0,0,5.286,7.2,2.61,2.61,0,0,0,6.2,6.163H7.769a4.954,4.954,0,0,1-1.5,2.2A3.534,3.534,0,0,1,4.028,9.122Zm.014-7.6a2.322,2.322,0,0,0-1.593.6,3.088,3.088,0,0,0-.933,1.635H6.483a3.179,3.179,0,0,0-.9-1.654A2.214,2.214,0,0,0,4.042,1.517Z" transform="translate(337.745 51.088)" fill="#1a1e3c"/>
      <path id="Fill_67" data-name="Fill 67" d="M1.4,8.773H0V.137H1.31v1a2.509,2.509,0,0,1,.8-.853A1.993,1.993,0,0,1,3.147,0V1.621A1.766,1.766,0,0,0,1.8,2.238,2.885,2.885,0,0,0,1.4,3.967Z" transform="translate(346.993 51.211)" fill="#1a1e3c"/>
      <path id="Fill_68" data-name="Fill 68" d="M0,6.116H1.315a1.753,1.753,0,0,0,.344,1.121,1.033,1.033,0,0,0,.857.448,1.054,1.054,0,0,0,.8-.335A1.2,1.2,0,0,0,3.628,6.5a1.32,1.32,0,0,0-.221-.769A1.7,1.7,0,0,0,2.691,5.2c-.114-.056-.274-.122-.481-.207a4.366,4.366,0,0,1-1.051-.547A2.261,2.261,0,0,1,.547,3.6a2.636,2.636,0,0,1-.2-1.079A2.591,2.591,0,0,1,1,.74,2.087,2.087,0,0,1,2.62,0,2.026,2.026,0,0,1,4.2.651a2.816,2.816,0,0,1,.641,1.814H3.5a1.162,1.162,0,0,0-.278-.744.867.867,0,0,0-.669-.269.787.787,0,0,0-.621.287,1.024,1.024,0,0,0-.249.712c0,.481.372.876,1.126,1.182l.5.212a2.814,2.814,0,0,1,1.267,1,2.919,2.919,0,0,1,.382,1.593,2.751,2.751,0,0,1-.707,1.927,2.321,2.321,0,0,1-1.78.773A2.148,2.148,0,0,1,.726,8.326,3.669,3.669,0,0,1,0,6.116" transform="translate(350.621 51.074)" fill="#1a1e3c"/>
      <path id="Fill_69" data-name="Fill 69" d="M1.385,11.43H0V2.794H1.385v8.635Zm0-9.644H0V0H1.385V1.785Z" transform="translate(356.784 48.554)" fill="#1a1e3c"/>
      <path id="Fill_70" data-name="Fill 70" d="M1.1,11.43V4.208H0V2.794H1.1V0h1.39V2.794h1.1V4.208h-1.1V11.43Z" transform="translate(359.21 48.553)" fill="#1a1e3c"/>
      <path id="Fill_71" data-name="Fill 71" d="M4.071,9.046a3.762,3.762,0,0,1-2.912-1.3A4.731,4.731,0,0,1,0,4.495,5.1,5.1,0,0,1,.292,2.77a4.412,4.412,0,0,1,.825-1.437A3.85,3.85,0,0,1,2.4.325,3.718,3.718,0,0,1,3.986,0,3.418,3.418,0,0,1,5.451.311a3.689,3.689,0,0,1,1.226.951V.217H8.085V8.853H6.677V7.793a3.806,3.806,0,0,1-1.2.938A3.26,3.26,0,0,1,4.071,9.046ZM4.113,1.5a2.46,2.46,0,0,0-1.885.868,3.051,3.051,0,0,0-.778,2.111,3.23,3.23,0,0,0,.778,2.2,2.444,2.444,0,0,0,1.908.886,2.351,2.351,0,0,0,1.823-.89,3.071,3.071,0,0,0,.786-2.083,3.226,3.226,0,0,0-.782-2.177A2.383,2.383,0,0,0,4.113,1.5Z" transform="translate(363.418 51.131)" fill="#1a1e3c"/>
      <path id="Fill_72" data-name="Fill 72" d="M1.4,8.773H0V.137H1.315v1a2.509,2.509,0,0,1,.8-.853A1.992,1.992,0,0,1,3.152,0V1.621A1.784,1.784,0,0,0,1.8,2.238,2.919,2.919,0,0,0,1.4,3.967Z" transform="translate(373.142 51.211)" fill="#1a1e3c"/>
      <path id="Fill_73" data-name="Fill 73" d="M1.38,11.43H0V2.794H1.38v8.635Zm0-9.644H0V0h1.38V1.785Z" transform="translate(377.312 48.554)" fill="#1a1e3c"/>
      <path id="Fill_74" data-name="Fill 74" d="M4.024,9.15a3.673,3.673,0,0,1-1.573-.339A3.861,3.861,0,0,1,1.159,7.8,4.629,4.629,0,0,1,.307,6.319,4.893,4.893,0,0,1,0,4.6,5.133,5.133,0,0,1,.278,2.884,4.481,4.481,0,0,1,1.1,1.452,4.3,4.3,0,0,1,2.422.378,3.313,3.313,0,0,1,3.949,0,3.64,3.64,0,0,1,5.518.34a4.012,4.012,0,0,1,1.309.994A4.779,4.779,0,0,1,8.015,4.491a5.215,5.215,0,0,1-.287,1.724,4.684,4.684,0,0,1-.8,1.471A4.157,4.157,0,0,1,5.6,8.778,3.467,3.467,0,0,1,4.024,9.15Zm-.014-7.6a2.32,2.32,0,0,0-1.828.867,3.26,3.26,0,0,0-.735,2.172,3.224,3.224,0,0,0,.735,2.158A2.344,2.344,0,0,0,4.024,7.6a2.294,2.294,0,0,0,1.814-.867,3.257,3.257,0,0,0,.726-2.167A3.24,3.24,0,0,0,5.838,2.4,2.324,2.324,0,0,0,4.01,1.546Z" transform="translate(379.913 51.074)" fill="#1a1e3c"/>
      <path id="Fill_75" data-name="Fill 75" d="M4.069,9.051a3.75,3.75,0,0,1-2.912-1.3A4.729,4.729,0,0,1,0,4.5,5.177,5.177,0,0,1,.29,2.771a4.406,4.406,0,0,1,.825-1.433A3.851,3.851,0,0,1,2.4.325,3.709,3.709,0,0,1,3.981,0a3.479,3.479,0,0,1,1.47.316,3.75,3.75,0,0,1,1.222.947V.222H8.086V8.853H6.674V7.793a3.711,3.711,0,0,1-1.2.938A3.2,3.2,0,0,1,4.069,9.051Zm.042-7.544a2.455,2.455,0,0,0-1.883.862,3.062,3.062,0,0,0-.782,2.111,3.23,3.23,0,0,0,.782,2.2,2.457,2.457,0,0,0,1.908.886,2.375,2.375,0,0,0,1.818-.89,3.049,3.049,0,0,0,.789-2.083,3.245,3.245,0,0,0-.78-2.177A2.386,2.386,0,0,0,4.111,1.508Z" transform="translate(264.173 65.849)" fill="#1a1e3c"/>
      <path id="Fill_76" data-name="Fill 76" d="M1.4,8.773H0V.141H1.315v.994A2.51,2.51,0,0,1,2.108.287,1.959,1.959,0,0,1,3.152,0V1.626A1.782,1.782,0,0,0,1.8,2.243,2.9,2.9,0,0,0,1.4,3.972Z" transform="translate(273.898 65.93)" fill="#1a1e3c"/>
      <path id="Fill_77" data-name="Fill 77" d="M4.14,12.231a3.72,3.72,0,0,1-2.28-.706A3.8,3.8,0,0,1,.507,9.546H2a2.385,2.385,0,0,0,.853.919,2.3,2.3,0,0,0,1.2.321,2.456,2.456,0,0,0,1.9-.792A2.985,2.985,0,0,0,6.674,7.9V7.793a3.669,3.669,0,0,1-1.2.938,3.21,3.21,0,0,1-1.409.32,3.751,3.751,0,0,1-2.91-1.3A4.724,4.724,0,0,1,0,4.5,5.177,5.177,0,0,1,.29,2.771a4.455,4.455,0,0,1,.824-1.433A3.832,3.832,0,0,1,2.4.325,3.724,3.724,0,0,1,3.984,0,3.461,3.461,0,0,1,5.449.316a3.823,3.823,0,0,1,1.24.947V.222h1.4v7.2a5.41,5.41,0,0,1-1.05,3.525A3.573,3.573,0,0,1,4.14,12.231ZM4.112,1.508a2.454,2.454,0,0,0-1.881.862,3.052,3.052,0,0,0-.782,2.111,3.22,3.22,0,0,0,.782,2.2,2.459,2.459,0,0,0,1.908.886,2.383,2.383,0,0,0,1.819-.89,3.069,3.069,0,0,0,.786-2.083,3.232,3.232,0,0,0-.78-2.177A2.378,2.378,0,0,0,4.112,1.508Z" transform="translate(277.669 65.849)" fill="#1a1e3c"/>
      <path id="Fill_78" data-name="Fill 78" d="M4.023,9.117a3.71,3.71,0,0,1-1.574-.334A3.971,3.971,0,0,1,1.156,7.769a4.768,4.768,0,0,1-.85-1.48A4.966,4.966,0,0,1,0,4.565a5.1,5.1,0,0,1,.278-1.7A4.622,4.622,0,0,1,1.1,1.423,3.945,3.945,0,0,1,2.407.358,3.552,3.552,0,0,1,3.995,0,3.69,3.69,0,0,1,5.9.528,4.292,4.292,0,0,1,7.35,2.007a4.87,4.87,0,0,1,.5,1.291A7.156,7.156,0,0,1,8.014,4.9V5.15H1.474A3.016,3.016,0,0,0,2.355,6.9a2.333,2.333,0,0,0,1.668.669A2.3,2.3,0,0,0,5.286,7.2a2.63,2.63,0,0,0,.9-1.042H7.769a4.933,4.933,0,0,1-1.5,2.2A3.54,3.54,0,0,1,4.023,9.117Zm.014-7.6a2.3,2.3,0,0,0-1.592.6A3.132,3.132,0,0,0,1.516,3.75H6.483a3.182,3.182,0,0,0-.9-1.649A2.216,2.216,0,0,0,4.037,1.517Z" transform="translate(286.945 65.812)" fill="#1a1e3c"/>
      <path id="Fill_79" data-name="Fill 79" d="M1.4,8.773H0V.141H1.343v.98A2.838,2.838,0,0,1,2.309.274,2.541,2.541,0,0,1,3.51,0,2.848,2.848,0,0,1,5.852,1a4.41,4.41,0,0,1,.815,2.855V8.773h-1.4V4.189A3.616,3.616,0,0,0,4.8,2.153a1.605,1.605,0,0,0-1.419-.664,1.634,1.634,0,0,0-1.516.782A5.291,5.291,0,0,0,1.4,4.849Z" transform="translate(296.174 65.93)" fill="#1a1e3c"/>
      <path id="Fill_80" data-name="Fill 80" d="M1.1,11.425V4.207H0V2.794H1.1V0h1.39V2.794H3.595V4.207H2.488v7.218Z" transform="translate(303.854 63.277)" fill="#1a1e3c"/>
      <path id="Fill_81" data-name="Fill 81" d="M1.38,11.425H0V2.794H1.38v8.631Zm0-9.644H0V0h1.38V1.78Z" transform="translate(308.457 63.277)" fill="#1a1e3c"/>
      <path id="Fill_82" data-name="Fill 82" d="M1.395,8.773H0V.141H1.338v.98A2.842,2.842,0,0,1,2.3.274,2.543,2.543,0,0,1,3.505,0,2.858,2.858,0,0,1,5.852,1a4.41,4.41,0,0,1,.811,2.855V8.773h-1.4V4.189A3.611,3.611,0,0,0,4.8,2.153a1.6,1.6,0,0,0-1.413-.664,1.626,1.626,0,0,0-1.517.782,5.229,5.229,0,0,0-.471,2.578Z" transform="translate(311.51 65.93)" fill="#1a1e3c"/>
      <path id="Fill_83" data-name="Fill 83" d="M4.024,9.15a3.658,3.658,0,0,1-1.57-.344A3.8,3.8,0,0,1,1.159,7.8a4.629,4.629,0,0,1-.848-1.48A4.933,4.933,0,0,1,0,4.6a5.267,5.267,0,0,1,.278-1.72A4.53,4.53,0,0,1,1.1,1.452,4.279,4.279,0,0,1,2.421.377,3.286,3.286,0,0,1,3.948,0,3.765,3.765,0,0,1,5.522.335a4.03,4.03,0,0,1,1.309,1A4.692,4.692,0,0,1,7.708,2.8a4.74,4.74,0,0,1,.311,1.687,5.411,5.411,0,0,1-.288,1.729A4.583,4.583,0,0,1,6.926,7.68,4.169,4.169,0,0,1,5.6,8.778,3.438,3.438,0,0,1,4.024,9.15Zm-.01-7.6a2.321,2.321,0,0,0-1.828.866A3.239,3.239,0,0,0,1.451,4.58a3.225,3.225,0,0,0,.736,2.158A2.34,2.34,0,0,0,4.024,7.6a2.288,2.288,0,0,0,1.813-.862,3.264,3.264,0,0,0,.73-2.172A3.222,3.222,0,0,0,5.837,2.4,2.3,2.3,0,0,0,4.014,1.546Z" transform="translate(319.36 65.798)" fill="#1a1e3c"/>
      <path id="Fill_84" data-name="Fill 84" d="M0,1.447H3.52V0H0Z" transform="translate(328.656 69.671)" fill="#1a1e3c"/>
      <path id="Fill_85" data-name="Fill 85" d="M4.066,9.051a3.75,3.75,0,0,1-2.912-1.3A4.741,4.741,0,0,1,0,4.5,5.152,5.152,0,0,1,.288,2.771a4.41,4.41,0,0,1,.829-1.433A3.791,3.791,0,0,1,2.4.325,3.706,3.706,0,0,1,3.981,0a3.483,3.483,0,0,1,1.47.316,3.761,3.761,0,0,1,1.225.947V.222H8.085V8.853H6.677V7.793a3.737,3.737,0,0,1-1.2.938A3.206,3.206,0,0,1,4.066,9.051Zm.042-7.544a2.452,2.452,0,0,0-1.88.862,3.07,3.07,0,0,0-.782,2.111,3.238,3.238,0,0,0,.782,2.2,2.457,2.457,0,0,0,1.908.886,2.375,2.375,0,0,0,1.818-.89,3.048,3.048,0,0,0,.786-2.083,3.242,3.242,0,0,0-.778-2.177A2.387,2.387,0,0,0,4.108,1.508Z" transform="translate(333.24 65.849)" fill="#1a1e3c"/>
      <path id="Fill_86" data-name="Fill 86" d="M0,11.425H1.385V0H0Z" transform="translate(342.95 63.277)" fill="#1a1e3c"/>
      <path id="Fill_87" data-name="Fill 87" d="M4.024,9.117A3.7,3.7,0,0,1,2.45,8.782a3.986,3.986,0,0,1-1.3-1.013A4.818,4.818,0,0,1,.306,6.29,5.06,5.06,0,0,1,0,4.565a4.968,4.968,0,0,1,.278-1.7A4.417,4.417,0,0,1,1.1,1.423,3.916,3.916,0,0,1,2.4.358,3.542,3.542,0,0,1,4,0,3.665,3.665,0,0,1,5.9.528,4.263,4.263,0,0,1,7.35,2.007,4.549,4.549,0,0,1,7.85,3.3,7.257,7.257,0,0,1,8.014,4.9V5.15H1.474A3.035,3.035,0,0,0,2.352,6.9a2.351,2.351,0,0,0,1.672.669A2.3,2.3,0,0,0,5.287,7.2a2.63,2.63,0,0,0,.9-1.042H7.769a4.925,4.925,0,0,1-1.5,2.2A3.537,3.537,0,0,1,4.024,9.117Zm.013-7.6a2.3,2.3,0,0,0-1.592.6A3.135,3.135,0,0,0,1.517,3.75H6.483a3.178,3.178,0,0,0-.9-1.649A2.217,2.217,0,0,0,4.037,1.517Z" transform="translate(345.566 65.812)" fill="#1a1e3c"/>
      <path id="Fill_88" data-name="Fill 88" d="M4.758,4.419a4.908,4.908,0,0,0-.4-2.294,1.35,1.35,0,0,0-1.273-.712,1.433,1.433,0,0,0-1.328.716,4.456,4.456,0,0,0-.429,2.224V8.772H0V.141H1.244V1.154A2.731,2.731,0,0,1,2.12.287,2.139,2.139,0,0,1,3.232,0,2.593,2.593,0,0,1,4.646.358a2.672,2.672,0,0,1,.918,1.13A2.605,2.605,0,0,1,6.52.367,2.709,2.709,0,0,1,7.972,0a2.612,2.612,0,0,1,2.111.952A3.861,3.861,0,0,1,10.875,3.5V8.772H9.47V3.74a2.933,2.933,0,0,0-.437-1.719,1.4,1.4,0,0,0-1.211-.608,1.406,1.406,0,0,0-1.3.65,4.406,4.406,0,0,0-.4,2.2V8.772H4.758Z" transform="translate(354.81 65.93)" fill="#1a1e3c"/>
      <path id="Fill_89" data-name="Fill 89" d="M4.07,12.665a3.75,3.75,0,0,1-2.912-1.3A4.726,4.726,0,0,1,0,8.113,5.181,5.181,0,0,1,.292,6.384a4.418,4.418,0,0,1,.825-1.433A3.891,3.891,0,0,1,2.4,3.939a3.678,3.678,0,0,1,1.583-.325,3.43,3.43,0,0,1,1.47.317,3.742,3.742,0,0,1,1.225.947V3.835H8.09v8.631H6.676v-1.06a3.753,3.753,0,0,1-1.2.937A3.233,3.233,0,0,1,4.07,12.665Zm.042-7.543a2.467,2.467,0,0,0-1.884.862,3.07,3.07,0,0,0-.782,2.111,3.24,3.24,0,0,0,.782,2.2,2.473,2.473,0,0,0,1.912.886,2.388,2.388,0,0,0,1.819-.89,3.067,3.067,0,0,0,.787-2.083,3.245,3.245,0,0,0-.782-2.176A2.368,2.368,0,0,0,4.113,5.121Zm.3-2.393H3.566L5.008,0H6.426L4.415,2.728Z" transform="translate(366.956 62.236)" fill="#1a1e3c"/>
      <path id="Fill_90" data-name="Fill 90" d="M1.395,8.773H0V.141H1.338v.98A2.843,2.843,0,0,1,2.3.274,2.554,2.554,0,0,1,3.505,0,2.86,2.86,0,0,1,5.852,1a4.413,4.413,0,0,1,.811,2.855V8.773h-1.4V4.189A3.658,3.658,0,0,0,4.8,2.153a1.609,1.609,0,0,0-1.418-.664,1.626,1.626,0,0,0-1.518.782,5.236,5.236,0,0,0-.471,2.578Z" transform="translate(376.671 65.93)" fill="#1a1e3c"/>
      <path id="Fill_91" data-name="Fill 91" d="M0,39.445H1.774V0H0Z" transform="translate(255.363 50.731)" fill="#1a1e3c"/>
    </g>
  </g>
</svg>
